<?xml version="1.0" encoding="UTF-8"?>
<svg width="84.47191mm" height="18.99853mm" version="1.1" viewBox="0 0 84.47191 18.99853" xmlns="http://www.w3.org/2000/svg">
 <title>12 Hours of Sebring logo</title>
 <desc>Endurance sports car race in Sebring, Florida, United States</desc>
 <g transform="translate(-35.38705 -37.60644)">
  <g transform="matrix(.453992 0 0 .453992 19.32161 15.03714)" stroke="#929292" stroke-width="1.19062">
   <path d="m36.11715 87.18969s0.712157-3.4687 1.071986-5.394426c0 0 3.715321-0.06099 8.25627-0.06503 8.681119-0.0077 9.055963-0.03705 9.883619-0.773036 0.451186-0.401203 0.962705-1.522135 0.967383-2.119908 0.0047-0.588856-0.392663-1.374735-0.7864-1.555562-0.164772-0.07567-2.902183-0.188861-6.083152-0.251546-6.182514-0.12183-6.826552-0.203327-8.563621-1.083625-2.230818-1.130501-2.992141-3.632737-2.160661-7.101428 0.741285-3.09245 2.281966-5.454987 4.71132-6.61419 2.557314-1.220261 2.151956-1.332014 12.3345-1.368991l9.755928-0.03543s-0.799188 4.202221-1.105814 5.738697l-8.282088 0.08383c-9.183989 0.09295-9.071335 0.07926-9.931077 1.206532-0.544664 0.714124-0.863029 2.078664-0.628751 2.694882 0.0923 0.242792 0.416235 0.576381 0.719847 0.741301 0.490447 0.266396 1.225396 0.310907 6.587077 0.398891 5.637919 0.09253 6.110227 0.123624 7.177709 0.472774 2.247181 0.734962 3.299791 2.319531 3.299791 4.967385 0 2.657565-1.075997 5.383546-2.80666 7.110548-1.298506 1.295738-2.583469 1.985049-4.753769 2.550133-1.346081 0.350491-1.81021 0.369721-10.50278 0.435287-3.031724-0.0431-9.160655-0.03709-9.160655-0.03709zm35.65706-0.09509c-2.528379-0.24762-4.356023-1.093369-5.907164-2.733576-1.340517-1.417503-1.931429-2.869475-2.139757-5.257792-0.208544-2.390799 0.582885-6.38836 1.845583-9.322226 0.901467-2.094595 1.585439-3.116157 3.105732-4.63876 1.644581-1.647066 3.001088-2.869457 5.319013-3.54063 2.167567-0.627616 4.299616-0.87057 10.30195-0.87057 4.49235 0 5.314587-0.0054 5.314587-0.0054l-0.825142 5.755783h-5.338409c-2.936113 0-5.73922 0.07601-6.229115 0.168941-2.077463 0.393997-3.696647 1.594962-4.561435 3.383206-0.253555 0.524328-0.46101 1.033497-0.46101 1.131523 0 0.123274 2.402414 0.178197 7.79526 0.178197 4.287393 0 7.79526 0.141496 7.79526 0.141496s-0.647538 3.248097-1.00584 5.165651c-5.535631 0.0876-9.755674 0.05767-15.72009 0.05767-0.176975 1.21084-0.212643 2.807753 0.490463 3.766622 0.951543 1.209767 2.320727 1.427662 8.980845 1.429271l5.234559 0.0016c-0.371678 1.840723-0.702203 3.43783-1.081275 5.280994l-5.78358 0.02013c-2.369963-0.09526-4.766647 0.09266-7.130437-0.112093zm15.48239 0.106191s1.058008-5.885675 2.466737-12.96367c1.408713-7.07799 2.428263-13.53447 2.428263-13.53447s4.015296 0.03339 8.97115 0.07328c9.47555 0.07626 10.31595 0.313512 11.84639 1.08231 0.94713 0.475773 2.10812 1.94906 2.4664 2.906714 0.68912 1.841942 0.29704 4.371237-0.9851 6.355096-0.61742 0.955342-2.29322 2.782279-2.29322 2.782279s1.69386 3.149944 1.19077 5.902523c-0.3591 1.849406-1.21757 3.581403-2.32319 4.68711-1.10245 1.102521-2.19617 1.672631-4.29365 2.239259-3.37755 0.912435-6.552 0.473646-10.0307 0.499112-3.238914-0.0092-6.563562 0.0031-9.443847-0.02954zm17.81324-5.930556c1.22374-0.466485 1.70324-2.754114 1.05471-3.680082-0.42666-0.60919-1.27814-0.712515-5.88051-0.713486l-4.376708-0.0016-0.952156 4.802193s0.989376 0.114782 4.802088 0.02733c1.952896-0.04479 3.953856 0.09883 5.352576-0.434355zm1.7913-9.973173c0.93788-0.16895 1.40751-1.478653 1.49738-2.562481 0.0936-1.128237-0.21386-1.663679-1.09586-1.908633-0.36345-0.100944-2.48421-0.175044-5.00959-0.175967l-4.379336-0.0016-0.44031 2.327979c-0.242173 1.280398-0.55724 2.585268-0.55724 2.585268s2.476639 0.06833 4.989136 0.0375c1.73428-0.05536 2.74281 0.103787 4.99582-0.302069zm46.64306 16.21749s1.19397-6.187705 2.4884-12.73446c0.91524-4.55232 1.87676-9.348085 2.80702-13.89738h6.89334c-0.95232 5.196877-1.92784 9.748346-2.75897 13.9393l-2.46947 12.68192zm9.73406 0s3.25127-16.42837 5.40263-26.63184h7.92656c2.24202 5.48589 4.35735 11.2196 6.70108 16.6632 1.18487-5.776496 2.05921-10.46527 3.18968-16.72011l6.77884 0.02873c-1.77288 9.255235-3.27616 16.69736-5.20588 26.61193l-7.45981-0.0072c-2.41497-5.787351-4.30485-11.8426-7.22961-17.40886-1.19074 6.079439-3.24848 17.47652-3.24848 17.47652zm28.26659-6.006759c-0.56457-1.795304-0.52845-5.211569 0.0809-7.649779 1.04821-4.194384 1.22608-6.240867 3.16024-8.722323 2.99868-3.847183 7.36099-4.251262 11.75609-4.258656 5.62428-0.0095 13.34413 0.0049 13.34413 0.0049l-0.97583 5.913525-14.43574 0.367503c-2.53036 0.06442-4.44391 2.648194-5.25935 5.741216-1.2184 4.621572-0.80064 7.219788 1.33799 8.321267 0.82078 0.422733 0.88148 0.428281 4.68448 0.428281h3.85292c0.32382-1.574976 0.9299-4.732977 0.9299-4.732977l-7.45979-0.296536 1.01358-5.197168 14.32326 0.123941-3.09138 15.89979s-14.96585 0.555669-18.31887-0.896066c-2.71987-0.895776-4.17951-2.872468-4.94253-5.04696z" fill="#080808"/>
   <path d="m129.9928 86.74978c-1.5812-0.29974-2.29268-0.53655-3.4705-1.15511-1.4124-0.74175-1.78673-1.36567-1.78673-2.97805 0-3.31096 1.67221-6.5881 4.66945-9.15099 0.70497-0.60282 2.79393-2.09858 4.64215-3.32392 3.7234-2.46859 4.90689-3.55686 5.26704-4.84324 0.36454-1.302093-0.0184-2.359114-1.05189-2.903894-0.71694-0.377886-2.38612-0.373359-4.80947 0.01307-2.21281 0.352837-2.64329 0.271309-3.19572-0.605319-0.28552-0.453091-0.33347-0.745676-0.27437-1.674191 0.18767-2.948893 2.82219-5.495303 6.48761-6.270601 1.77836-0.376158 4.90635-0.231847 7.06081 0.32576 3.1607 0.818018 5.5967 2.294064 6.82711 4.13676 0.94857 1.420572 1.2582 2.55342 1.16411 4.259115-0.0932 1.68928-0.55293 2.65842-1.98977 4.1945-1.7024 1.82-3.34938 2.93184-8.4626 5.71296-5.63987 3.06756-6.94662 4.11747-6.94662 5.58124 0 1.07253 0.7857 1.28132 3.91505 1.04044 4.57167-0.3519 9.61249-1.26952 10.53895-1.91848 0.46524-0.32587 1.79639-0.34023 2.54493-0.0274 0.74521 0.31138 1.10619 0.86669 1.10619 1.70166 0 3.41834-4.31911 6.25491-11.63993 7.6445-2.38633 0.45294-8.71846 0.59712-10.5958 0.24124z" fill="#d40000"/>
   <path d="m115.5154 89.64298c-0.89643-0.6092-1.17291-1.31948-1.17321-3.01403 0-2.39229 0.67804-5.41986 2.78247-12.41626 0.81381-2.70555 1.73679-6.36536 2.6063-10.33456 0.74047-3.380036 1.45654-6.268791 1.59128-6.419474 0.43784-0.489606 1.72233-0.732047 3.83246-0.723363 2.33679 0.0096 3.21794 0.31609 3.60658 1.254395 0.37212 0.898424 0.0559 2.149416-2.92296 11.56229-1.57747 4.98471-2.8055 9.54455-3.12554 11.60543-0.28373 1.82721-0.16143 2.58351 0.57353 3.54643 1.88744 2.47284-0.75782 4.95294-5.59159 5.24248-1.48391 0.0889-1.63261 0.0682-2.17932-0.30334z" fill="#d40000"/>
   <g stroke="none">
    <path d="m111.8306 89.44057-75.85458 0.471146 7.30277 1.413439 70.55418-0.235573z" fill="#0066b3"/>
    <path d="m150.9357 89.44057 66.13718 0.500593 2.41463 1.619566-70.55418-0.235573z" fill="#0066b3"/>
    <g transform="matrix(.5617734 0 -.1304177 .3010157 74.88938 38.88062)" stroke-width=".693885" aria-label="HOURS OF">
     <path transform="matrix(1.780077 0 .7712337 3.322086 -163.2949 -129.1648)" d="m167.3564 55.83464-9.70303 0.04164s-0.76165-1.622939-1.257-2.366736c-0.32897-0.493975-0.75758-0.920452-1.18843-1.328623-0.39985-0.378807-0.85366-0.714705-1.30367-1.032311-0.82555-0.58265-2.68487-1.414798-2.68487-1.414798l70.23236-0.02082s0.19124 5.885647-1.66575 5.996715c-2.53734 0.151761-52.42961 0.12493-52.42961 0.12493z" fill="#0066b3"/>
     <g fill="#fff">
      <path d="m177.8857 38.00689v15.53734h-1.75293v-7.205228h-9.08337v7.205228h-1.75293v-15.53734h1.75293v6.852365h9.08337v-6.852365z"/>
      <path d="m186.5138 37.84753q4.40509 0 5.50921 1.286241t1.10412 6.431206q0 5.543359-1.05859 6.840983t-5.55474 1.297624q-4.47339 0-5.55474-1.286241-1.06997-1.286242-1.06997-6.647478v-1.092736l0.0228-1.468364q0-3.096085 1.38869-4.222969 1.40006-1.138266 5.21326-1.138266zm-0.0114 1.479746q-3.68799 0-4.31404 0.819552-0.62604 0.819552-0.62604 5.623037 0 4.814868 0.62604 5.63442 0.62605 0.819552 4.31404 0.819552 3.69936 0 4.32541-0.819552t0.62605-5.63442v-1.013057l-0.0114-1.468364q0-2.572482-0.86508-3.266825t-4.07499-0.694343z"/>
      <path d="m205.6935 38.00689h1.75293v10.88183q0 2.959493-1.19518 3.892872-1.1838 0.921996-4.98561 0.921996-3.56277 0-4.84901-0.887848-1.27486-0.899231-1.27486-3.403417v-11.40543h1.75293v10.88183q0 2.208237 0.71711 2.777371 0.71711 0.55775 3.52863 0.55775 3.05055 0 3.80181-0.546368 0.75125-0.55775 0.75125-2.788753z"/>
      <path d="m210.3946 53.54423v-15.53734h7.39873q2.50419 0 3.52863 0.990292t1.02444 3.437565q0 2.151324-0.55775 3.005024-0.55775 0.842317-2.12856 1.092736v0.03415q2.47004 0.182123 2.47004 3.005024v3.972551h-1.75293v-3.57416q0-2.720457-2.35621-2.720457h-5.87346v6.294615zm1.75293-7.774362h5.06529q2.00335 0 2.73184-0.603281 0.72849-0.614664 0.72849-2.299298 0-2.105794-0.54637-2.743223-0.53499-0.637429-2.31068-0.637429h-5.66857z"/>
      <path d="m235.573 42.21848h-1.74155q0-1.87814-0.62604-2.378978-0.62605-0.51222-2.94812-0.51222-2.7546 0-3.55139 0.489455-0.79678 0.478072-0.79678 2.151324 0 1.87814 0.62604 2.287916 0.62605 0.409776 3.72213 0.55775 3.63108 0.159358 4.60998 0.921996 0.9903 0.762639 0.9903 3.4148 0 2.868432-1.13827 3.71075-1.12688 0.842317-4.99699 0.842317-3.35789 0-4.47339-0.842317-1.10412-0.8537-1.10412-3.426183l-0.0114-0.694343h1.74155v0.387011q0 2.083028 0.63743 2.595248 0.63743 0.500837 3.26682 0.500837 3.01641 0 3.71075-0.500837 0.69434-0.51222 0.69434-2.709075 0-1.422833-0.47807-1.889522-0.46669-0.478072-1.9692-0.569134l-1.82123-0.09106-1.73016-0.09106q-3.94979-0.273184-3.94979-4.09776 0-2.652161 1.14965-3.540009t4.58722-0.887848q3.48309 0 4.54168 0.830934 1.05859 0.819552 1.05859 3.54001z"/>
      <path d="m249.4713 37.84753q4.4051 0 5.50921 1.286241 1.10412 1.286241 1.10412 6.431206 0 5.543359-1.05858 6.840983-1.05859 1.297624-5.55475 1.297624-4.47338 0-5.55474-1.286241-1.06997-1.286242-1.06997-6.647478v-1.092736l0.0228-1.468364q0-3.096085 1.38868-4.222969 1.40007-1.138266 5.21326-1.138266zm-0.0114 1.479746q-3.68798 0-4.31403 0.819552t-0.62605 5.623037q0 4.814868 0.62605 5.63442t4.31403 0.819552q3.69937 0 4.32541-0.819552 0.62605-0.819552 0.62605-5.63442v-1.013057l-0.0114-1.468364q0-2.572482-0.86508-3.266825-0.86509-0.694343-4.075-0.694343z"/>
      <path d="m259.8409 39.48664v5.429531h7.56948v1.479747h-7.56948v7.148315h-1.75293v-15.53734h9.5273v1.479747z"/>
     </g>
    </g>
   </g>
  </g>
 </g>
</svg>
