<?xml version="1.0" encoding="UTF-8" standalone="no"?>
<!-- Created with Inkscape (http://www.inkscape.org/) -->

<svg
   xmlns:dc="http://purl.org/dc/elements/1.1/"
   xmlns:cc="http://creativecommons.org/ns#"
   xmlns:rdf="http://www.w3.org/1999/02/22-rdf-syntax-ns#"
   xmlns:svg="http://www.w3.org/2000/svg"
   xmlns="http://www.w3.org/2000/svg"
   xmlns:sodipodi="http://sodipodi.sourceforge.net/DTD/sodipodi-0.dtd"
   xmlns:inkscape="http://www.inkscape.org/namespaces/inkscape"
   width="116.33847mm"
   height="19.334749mm"
   viewBox="0 0 116.33847 19.334749"
   version="1.1"
   id="svg13151"
   inkscape:version="0.92.0 r15299"
   sodipodi:docname="mid ohio sports car course.svg">
  <defs
     id="defs13145">
    <clipPath
       id="clipPath8452"
       clipPathUnits="userSpaceOnUse">
      <path
         inkscape:connector-curvature="0"
         id="path8450"
         d="m 30.848,675.667 h 340.658 v 67.591 H 30.848 Z" />
    </clipPath>
  </defs>
  <sodipodi:namedview
     id="base"
     pagecolor="#ffffff"
     bordercolor="#666666"
     borderopacity="1.0"
     inkscape:pageopacity="0.0"
     inkscape:pageshadow="2"
     inkscape:zoom="2.0576938"
     inkscape:cx="217.96246"
     inkscape:cy="34.648341"
     inkscape:document-units="mm"
     inkscape:current-layer="layer1"
     showgrid="false"
     fit-margin-top="0"
     fit-margin-left="0"
     fit-margin-right="0"
     fit-margin-bottom="0"
     inkscape:window-width="1280"
     inkscape:window-height="744"
     inkscape:window-x="-4"
     inkscape:window-y="-4"
     inkscape:window-maximized="1" />
  <metadata
     id="metadata13148">
    <rdf:RDF>
      <cc:Work
         rdf:about="">
        <dc:format>image/svg+xml</dc:format>
        <dc:type
           rdf:resource="http://purl.org/dc/dcmitype/StillImage" />
        <dc:title></dc:title>
      </cc:Work>
    </rdf:RDF>
  </metadata>
  <g
     inkscape:label="Layer 1"
     inkscape:groupmode="layer"
     id="layer1"
     transform="translate(11.556139,-156.80882)">
    <g
       id="g13516"
       transform="translate(0.50000073,-0.50000028)">
      <path
         inkscape:connector-curvature="0"
         id="path8454"
         style="fill:#ffffff;fill-opacity:1;fill-rule:nonzero;stroke:none;stroke-width:0.35277778"
         d="M 52.519346,166.39321 H 39.826049 v 9.44986 h 12.693297 z" />
      <path
         d="m -11.556139,162.05281 h 1.362781 l 0.01799,-3.27554 h 0.02399 l 0.7951612,3.27554 h 1.3327944 l 0.8195027,-3.27554 h 0.011642 l 0.023989,3.27554 h 1.4347472 v -4.1723 h -2.3614944 l -0.5376333,2.28353 h -0.012347 l -0.5439834,-2.28353 h -2.3671384 z"
         style="fill:#d82543;fill-opacity:1;fill-rule:nonzero;stroke:none;stroke-width:0.35277778"
         id="path8458"
         inkscape:connector-curvature="0" />
      <path
         inkscape:connector-curvature="0"
         id="path8460"
         style="fill:#d82543;fill-opacity:1;fill-rule:nonzero;stroke:none;stroke-width:0.35277778"
         d="m -4.7414252,162.05299 h 1.6019638 v -4.17231 h -1.6019638 z" />
      <path
         d="m -0.58104642,158.84909 h 0.39440555 c 0.57396943,0 0.71754998,0.37006 0.71754998,1.08797 0,0.69356 -0.13158611,1.07562 -0.71119998,1.07562 h -0.40075555 z m -1.60196388,3.20357 h 2.28353053 c 1.19556387,0 2.10431937,-0.496 2.10431937,-2.07398 0,-1.69156 -0.8431388,-2.09832 -2.0387027,-2.09832 h -2.3491472 z"
         style="fill:#d82543;fill-opacity:1;fill-rule:evenodd;stroke:none;stroke-width:0.35277778"
         id="path8464"
         inkscape:connector-curvature="0" />
      <path
         inkscape:connector-curvature="0"
         id="path8466"
         style="fill:#d82543;fill-opacity:1;fill-rule:nonzero;stroke:none;stroke-width:0.35277778"
         d="m 3.0345024,160.96502 h 1.6739305 v -1.03928 H 3.0345024 Z" />
      <path
         d="m 7.1173406,159.96684 c 0,-0.38806 0.047625,-1.15358 0.6395861,-1.15358 0.6099528,0 0.6515805,0.76552 0.6575778,1.15358 -0.006,0.44873 -0.023989,1.15394 -0.6575778,1.15394 -0.5736167,0 -0.6395861,-0.70521 -0.6395861,-1.15394 m 2.9710944,0 c 0,-1.39876 -0.8727722,-2.15794 -2.3315083,-2.15794 -1.4587361,0 -2.3135166,0.75918 -2.3135166,2.15794 0,1.42311 0.8547805,2.15794 2.3135166,2.15794 1.4587361,0 2.3315083,-0.73483 2.3315083,-2.15794"
         style="fill:#d82543;fill-opacity:1;fill-rule:evenodd;stroke:none;stroke-width:0.35277778"
         id="path8470"
         inkscape:connector-curvature="0" />
      <path
         d="m 13.548691,159.32118 h -1.069975 v -1.44074 h -1.602317 v 4.1723 h 1.602317 v -1.50037 h 1.069975 v 1.50037 h 1.601964 v -4.1723 h -1.601964 z"
         style="fill:#d82543;fill-opacity:1;fill-rule:nonzero;stroke:none;stroke-width:0.35277778"
         id="path8474"
         inkscape:connector-curvature="0" />
      <path
         inkscape:connector-curvature="0"
         id="path8476"
         style="fill:#d82543;fill-opacity:1;fill-rule:nonzero;stroke:none;stroke-width:0.35277778"
         d="m 16.130319,162.05299 h 1.602316 v -4.17231 h -1.602316 z" />
      <path
         d="m 20.177068,159.96684 c 0,-0.38806 0.04763,-1.15358 0.639586,-1.15358 0.609953,0 0.651933,0.76552 0.657578,1.15358 -0.0056,0.44873 -0.02399,1.15394 -0.657578,1.15394 -0.573617,0 -0.639586,-0.70521 -0.639586,-1.15394 m 2.971094,0 c 0,-1.39876 -0.872772,-2.15794 -2.331508,-2.15794 -1.458383,0 -2.313517,0.75918 -2.313517,2.15794 0,1.42311 0.855134,2.15794 2.313517,2.15794 1.458736,0 2.331508,-0.73483 2.331508,-2.15794"
         style="fill:#d82543;fill-opacity:1;fill-rule:evenodd;stroke:none;stroke-width:0.35277778"
         id="path8480"
         inkscape:connector-curvature="0" />
      <path
         d="m 30.105892,157.95205 c -0.436386,-0.0896 -0.932744,-0.14323 -1.380772,-0.14323 -0.950736,0 -2.1463,0.2032 -2.1463,1.35114 0,1.61925 2.193925,1.11231 2.193925,1.67358 0,0.20955 -0.340784,0.28716 -0.71755,0.28716 -0.478014,0 -1.004006,-0.0956 -1.434395,-0.27552 v 1.08232 c 0.597606,0.13794 1.105959,0.19721 1.721556,0.19721 0.926747,0 2.032353,-0.28082 2.032353,-1.39877 0,-1.60761 -2.193573,-1.09432 -2.193573,-1.63795 0,-0.26917 0.436034,-0.27481 0.687212,-0.27481 0.454377,0 0.878769,0.0836 1.237544,0.20884 z"
         style="fill:#d82543;fill-opacity:1;fill-rule:nonzero;stroke:none;stroke-width:0.35277778"
         id="path8484"
         inkscape:connector-curvature="0" />
      <path
         d="m 32.751302,158.84909 h 0.346781 c 0.388761,0 0.777169,0.0536 0.777169,0.49636 0,0.46566 -0.388408,0.53763 -0.771172,0.53763 h -0.352778 z m -1.559983,3.20357 h 1.601964 v -1.2012 h 1.147586 c 0.836789,0 1.536347,-0.44874 1.536347,-1.536 0,-1.12395 -0.87877,-1.4351 -1.53035,-1.4351 h -2.755547 z"
         style="fill:#d82543;fill-opacity:1;fill-rule:evenodd;stroke:none;stroke-width:0.35277778"
         id="path8488"
         inkscape:connector-curvature="0" />
      <path
         d="m 37.812534,159.96684 c 0,-0.38806 0.04798,-1.15358 0.639586,-1.15358 0.609953,0 0.651581,0.76552 0.657578,1.15358 -0.006,0.44873 -0.02399,1.15394 -0.657578,1.15394 -0.573969,0 -0.639586,-0.70521 -0.639586,-1.15394 m 2.971094,0 c 0,-1.39876 -0.872772,-2.15794 -2.331508,-2.15794 -1.458383,0 -2.313517,0.75918 -2.313517,2.15794 0,1.42311 0.855134,2.15794 2.313517,2.15794 1.458736,0 2.331508,-0.73483 2.331508,-2.15794"
         style="fill:#d82543;fill-opacity:1;fill-rule:evenodd;stroke:none;stroke-width:0.35277778"
         id="path8492"
         inkscape:connector-curvature="0" />
      <path
         d="m 43.048215,158.81311 h 0.442383 c 0.322792,0 0.627945,0.054 0.627945,0.43039 0,0.42439 -0.323145,0.46037 -0.651581,0.46037 h -0.418747 z m -1.53035,3.23956 h 1.602317 v -1.4164 h 0.358422 c 0.197203,0 0.358775,0.0243 0.454378,0.21519 0.131586,0.25118 0.149577,0.90241 0.221191,1.20121 h 1.667934 c -0.167217,-0.40605 -0.149225,-1.05199 -0.394406,-1.49402 -0.149578,-0.22083 -0.358775,-0.3884 -0.705555,-0.44838 v -0.012 c 0.597958,-0.14323 0.998361,-0.46637 0.998361,-1.10596 0,-0.8008 -0.61595,-1.11195 -1.613959,-1.11195 h -2.588683 z"
         style="fill:#d82543;fill-opacity:1;fill-rule:evenodd;stroke:none;stroke-width:0.35277778"
         id="path8496"
         inkscape:connector-curvature="0" />
      <path
         d="M 50.672096,157.88047 H 46.24791 v 1.23155 h 1.411464 v 2.94075 h 1.601258 v -2.94075 h 1.411464 z"
         style="fill:#d82543;fill-opacity:1;fill-rule:nonzero;stroke:none;stroke-width:0.35277778"
         id="path8500"
         inkscape:connector-curvature="0" />
      <path
         d="m 54.77984,157.95205 c -0.436033,-0.0896 -0.932392,-0.14323 -1.380772,-0.14323 -0.950031,0 -2.1463,0.2032 -2.1463,1.35114 0,1.61925 2.194278,1.11231 2.194278,1.67358 0,0.20955 -0.340784,0.28716 -0.717198,0.28716 -0.478366,0 -1.004358,-0.0956 -1.434747,-0.27552 v 1.08232 c 0.597253,0.13794 1.105958,0.19721 1.721203,0.19721 0.926747,0 2.032705,-0.28082 2.032705,-1.39877 0,-1.60761 -2.193925,-1.09432 -2.193925,-1.63795 0,-0.26917 0.436739,-0.27481 0.687212,-0.27481 0.45473,0 0.879122,0.0836 1.237544,0.20884 z"
         style="fill:#d82543;fill-opacity:1;fill-rule:nonzero;stroke:none;stroke-width:0.35277778"
         id="path8504"
         inkscape:connector-curvature="0" />
      <path
         d="m 62.118782,160.85136 c -0.292806,0.1016 -0.573617,0.16122 -0.867481,0.16122 -0.662869,0 -1.140883,-0.36477 -1.140883,-1.08162 0,-0.68086 0.513292,-1.04634 1.195211,-1.04634 0.26917,0 0.537634,0.072 0.801511,0.15558 v -1.09996 c -0.430741,-0.0776 -0.693561,-0.13124 -1.13665,-0.13124 -1.338439,0 -2.498372,0.69921 -2.498372,2.09833 0,1.48801 1.112309,2.21756 2.498372,2.21756 0.407106,0 0.849489,-0.084 1.148292,-0.16757 z"
         style="fill:#d82543;fill-opacity:1;fill-rule:nonzero;stroke:none;stroke-width:0.35277778"
         id="path8508"
         inkscape:connector-curvature="0" />
      <path
         d="m 65.04465,158.77716 h 0.01164 l 0.45473,1.36913 h -0.926747 z m -2.534708,3.27554 h 1.595966 l 0.256823,-0.9024 h 1.351138 l 0.27552,0.9024 h 1.679575 l -1.488722,-4.1723 h -2.205567 z"
         style="fill:#d82543;fill-opacity:1;fill-rule:evenodd;stroke:none;stroke-width:0.35277778"
         id="path8512"
         inkscape:connector-curvature="0" />
      <path
         d="m 69.729186,158.81311 h 0.443089 c 0.322439,0 0.627592,0.054 0.627592,0.43039 0,0.42439 -0.323145,0.46037 -0.651934,0.46037 h -0.418747 z m -1.529997,3.23956 h 1.601964 v -1.4164 h 0.358775 c 0.197202,0 0.359127,0.0243 0.45473,0.21519 0.131586,0.25118 0.149225,0.90241 0.220486,1.20121 h 1.668286 c -0.167569,-0.40605 -0.149577,-1.05199 -0.394758,-1.49402 -0.149578,-0.22083 -0.358422,-0.3884 -0.705203,-0.44838 v -0.012 c 0.597959,-0.14323 0.998009,-0.46637 0.998009,-1.10596 0,-0.8008 -0.615245,-1.11195 -1.613959,-1.11195 h -2.58833 z"
         style="fill:#d82543;fill-opacity:1;fill-rule:evenodd;stroke:none;stroke-width:0.35277778"
         id="path8516"
         inkscape:connector-curvature="0" />
      <path
         d="m 79.530763,160.85136 c -0.293511,0.1016 -0.574675,0.16122 -0.867128,0.16122 -0.663928,0 -1.142294,-0.36477 -1.142294,-1.08162 0,-0.68086 0.51435,-1.04634 1.195916,-1.04634 0.269523,0 0.537987,0.072 0.800806,0.15558 v -1.09996 c -0.430389,-0.0776 -0.693561,-0.13124 -1.135592,-0.13124 -1.339497,0 -2.498725,0.69921 -2.498725,2.09833 0,1.48801 1.111603,2.21756 2.498725,2.21756 0.407106,0 0.849136,-0.084 1.148292,-0.16757 z"
         style="fill:#d82543;fill-opacity:1;fill-rule:nonzero;stroke:none;stroke-width:0.35277778"
         id="path8520"
         inkscape:connector-curvature="0" />
      <path
         d="m 81.799089,159.96684 c 0,-0.38806 0.04763,-1.15358 0.639586,-1.15358 0.6096,0 0.651228,0.76552 0.657578,1.15358 -0.0063,0.44873 -0.02434,1.15394 -0.657578,1.15394 -0.573969,0 -0.639586,-0.70521 -0.639586,-1.15394 m 2.970389,0 c 0,-1.39876 -0.872772,-2.15794 -2.330803,-2.15794 -1.459089,0 -2.313869,0.75918 -2.313869,2.15794 0,1.42311 0.85478,2.15794 2.313869,2.15794 1.458031,0 2.330803,-0.73483 2.330803,-2.15794"
         style="fill:#d82543;fill-opacity:1;fill-rule:evenodd;stroke:none;stroke-width:0.35277778"
         id="path8524"
         inkscape:connector-curvature="0" />
      <path
         d="m 87.153762,157.88047 h -1.601611 v 2.53506 c 0,1.2312 0.9144,1.70921 2.079625,1.70921 1.261886,0 2.092325,-0.44203 2.092325,-1.79317 v -2.4511 H 88.15812 v 2.48073 c 0,0.4064 -0.08925,0.68757 -0.508,0.68757 -0.382764,0 -0.496358,-0.29916 -0.496358,-0.69356 z"
         style="fill:#d82543;fill-opacity:1;fill-rule:nonzero;stroke:none;stroke-width:0.35277778"
         id="path8528"
         inkscape:connector-curvature="0" />
      <path
         d="m 92.167157,158.81311 h 0.442383 c 0.323145,0 0.627592,0.054 0.627592,0.43039 0,0.42439 -0.322439,0.46037 -0.651228,0.46037 h -0.418747 z m -1.53035,3.23956 h 1.602317 v -1.4164 h 0.358422 c 0.197555,0 0.358775,0.0243 0.455083,0.21519 0.131234,0.25118 0.149225,0.90241 0.220486,1.20121 h 1.668286 c -0.167569,-0.40605 -0.149577,-1.05199 -0.394758,-1.49402 -0.149578,-0.22083 -0.358422,-0.3884 -0.705203,-0.44838 v -0.012 c 0.597253,-0.14323 0.998009,-0.46637 0.998009,-1.10596 0,-0.8008 -0.615245,-1.11195 -1.613959,-1.11195 h -2.588683 z"
         style="fill:#d82543;fill-opacity:1;fill-rule:evenodd;stroke:none;stroke-width:0.35277778"
         id="path8532"
         inkscape:connector-curvature="0" />
      <path
         d="m 99.092785,157.95205 c -0.436739,-0.0896 -0.933097,-0.14323 -1.381478,-0.14323 -0.950383,0 -2.145594,0.2032 -2.145594,1.35114 0,1.61925 2.193219,1.11231 2.193219,1.67358 0,0.20955 -0.34043,0.28716 -0.716844,0.28716 -0.478367,0 -1.004358,-0.0956 -1.434747,-0.27552 v 1.08232 c 0.597958,0.13794 1.105958,0.19721 1.721908,0.19721 0.926042,0 2.032,-0.28082 2.032,-1.39877 0,-1.60761 -2.193925,-1.09432 -2.193925,-1.63795 0,-0.26917 0.436739,-0.27481 0.687917,-0.27481 0.454025,0 0.878063,0.0836 1.237544,0.20884 z"
         style="fill:#d82543;fill-opacity:1;fill-rule:nonzero;stroke:none;stroke-width:0.35277778"
         id="path8536"
         inkscape:connector-curvature="0" />
      <path
         d="m 100.12367,162.05281 h 3.65866 v -1.00436 H 101.69 v -0.56726 h 1.96074 v -1.00436 H 101.69 v -0.59196 h 2.0507 v -1.00436 h -3.61703 z"
         style="fill:#d82543;fill-opacity:1;fill-rule:nonzero;stroke:none;stroke-width:0.35277778"
         id="path8540"
         inkscape:connector-curvature="0" />
      <path
         inkscape:connector-curvature="0"
         id="path8542"
         style="fill:#ffffff;fill-opacity:1;fill-rule:nonzero;stroke:none;stroke-width:0.35277778"
         d="m 1.758858,166.39321 h -12.689416 v 9.44986 H 1.758858 Z" />
      <path
         inkscape:connector-curvature="0"
         id="path8544"
         style="fill:#2b5caf;fill-opacity:1;fill-rule:nonzero;stroke:none;stroke-width:0.35277778"
         d="M 14.447922,166.39321 H 1.758858 v 9.44986 h 12.689064 z" />
      <path
         inkscape:connector-curvature="0"
         id="path8546"
         style="fill:#f5f014;fill-opacity:1;fill-rule:nonzero;stroke:none;stroke-width:0.35277778"
         d="M 27.136985,166.39321 H 14.447922 v 9.44986 h 12.689063 z" />
      <path
         inkscape:connector-curvature="0"
         id="path8548"
         style="fill:#d82543;fill-opacity:1;fill-rule:nonzero;stroke:none;stroke-width:0.35277778"
         d="M 39.826402,166.39321 H 27.136985 v 9.44986 h 12.689417 z" />
      <path
         inkscape:connector-curvature="0"
         id="path8550"
         style="fill:#2d9663;fill-opacity:1;fill-rule:nonzero;stroke:none;stroke-width:0.35277778"
         d="M 65.209115,166.39321 H 52.519346 v 9.44986 h 12.689769 z" />
      <path
         inkscape:connector-curvature="0"
         id="path8552"
         style="fill:#f5f014;fill-opacity:1;fill-rule:nonzero;stroke:none;stroke-width:0.35277778"
         d="M 77.898179,166.39321 H 65.209115 v 9.44986 h 12.689064 z" />
      <path
         inkscape:connector-curvature="0"
         id="path8554"
         style="fill:#ffffff;fill-opacity:1;fill-rule:nonzero;stroke:none;stroke-width:0.35277778"
         d="M 90.586889,166.39321 H 77.897826 v 9.44986 h 12.689063 z" />
      <path
         d="m 12.043141,166.39395 h 2.404533 l -3.52e-4,1.81046 -10.2506642,7.63869 H 1.7582579 v -1.80022 z"
         style="fill:#f78e13;fill-opacity:1;fill-rule:nonzero;stroke:none;stroke-width:0.35277778"
         id="path8558"
         inkscape:connector-curvature="0" />
      <path
         inkscape:connector-curvature="0"
         id="path8560"
         style="fill:#100f0d;fill-opacity:1;fill-rule:nonzero;stroke:none;stroke-width:0.35277778"
         d="m 39.826049,166.39321 h 2.538589 v 2.36467 h -2.538589 z" />
      <path
         inkscape:connector-curvature="0"
         id="path8562"
         style="fill:#100f0d;fill-opacity:1;fill-rule:nonzero;stroke:none;stroke-width:0.35277778"
         d="m 44.903579,166.39321 h 2.538236 v 2.36467 h -2.538236 z" />
      <path
         inkscape:connector-curvature="0"
         id="path8564"
         style="fill:#100f0d;fill-opacity:1;fill-rule:nonzero;stroke:none;stroke-width:0.35277778"
         d="m 49.980757,166.39321 h 2.538589 v 2.36467 h -2.538589 z" />
      <path
         inkscape:connector-curvature="0"
         id="path8566"
         style="fill:#100f0d;fill-opacity:1;fill-rule:nonzero;stroke:none;stroke-width:0.35277778"
         d="m 42.364638,168.75788 h 2.538941 v 2.36396 h -2.538941 z" />
      <path
         inkscape:connector-curvature="0"
         id="path8568"
         style="fill:#100f0d;fill-opacity:1;fill-rule:nonzero;stroke:none;stroke-width:0.35277778"
         d="m 47.441815,168.75788 h 2.539295 v 2.36396 h -2.539295 z" />
      <path
         inkscape:connector-curvature="0"
         id="path8570"
         style="fill:#100f0d;fill-opacity:1;fill-rule:nonzero;stroke:none;stroke-width:0.35277778"
         d="m 39.826049,171.12149 h 2.538589 v 2.36467 h -2.538589 z" />
      <path
         inkscape:connector-curvature="0"
         id="path8572"
         style="fill:#100f0d;fill-opacity:1;fill-rule:nonzero;stroke:none;stroke-width:0.35277778"
         d="m 44.903579,171.12149 h 2.538236 v 2.36467 h -2.538236 z" />
      <path
         inkscape:connector-curvature="0"
         id="path8574"
         style="fill:#100f0d;fill-opacity:1;fill-rule:nonzero;stroke:none;stroke-width:0.35277778"
         d="m 49.980757,171.12149 h 2.538589 v 2.36467 h -2.538589 z" />
      <path
         inkscape:connector-curvature="0"
         id="path8576"
         style="fill:#100f0d;fill-opacity:1;fill-rule:nonzero;stroke:none;stroke-width:0.35277778"
         d="m 42.364638,173.48616 h 2.538941 v 2.36397 h -2.538941 z" />
      <path
         inkscape:connector-curvature="0"
         id="path8578"
         style="fill:#100f0d;fill-opacity:1;fill-rule:nonzero;stroke:none;stroke-width:0.35277778"
         d="m 47.441815,173.48616 h 2.539295 v 2.36397 h -2.539295 z" />
      <path
         inkscape:connector-curvature="0"
         id="path8580"
         style="fill:#d82543;fill-opacity:1;fill-rule:nonzero;stroke:none;stroke-width:0.35277778"
         d="m 70.22879,166.39321 h -2.565047 v 9.44986 h 2.565047 z" />
      <path
         inkscape:connector-curvature="0"
         id="path8582"
         style="fill:#d82543;fill-opacity:1;fill-rule:nonzero;stroke:none;stroke-width:0.35277778"
         d="m 75.357826,166.39321 h -2.565047 v 9.44986 h 2.565047 z" />
      <path
         d="m 88.197032,166.38446 h 2.404886 v 1.81046 l -10.265833,7.64822 h -2.438047 v -1.80129 z"
         style="fill:#d82543;fill-opacity:1;fill-rule:nonzero;stroke:none;stroke-width:0.35277778"
         id="path8586"
         inkscape:connector-curvature="0" />
      <path
         inkscape:connector-curvature="0"
         id="path8588"
         style="fill:#100f0d;fill-opacity:1;fill-rule:nonzero;stroke:none;stroke-width:0.35277778"
         d="M 103.2756,166.39321 H 90.586889 v 9.44986 H 103.2756 Z" />
      <path
         d="M -10.930523,166.39314 H 103.27564 V 175.843 H -10.930523 Z"
         style="fill:none;stroke:#d82543;stroke-width:0.60113335;stroke-linecap:butt;stroke-linejoin:miter;stroke-miterlimit:3.86400008;stroke-dasharray:none;stroke-opacity:1"
         id="path8592"
         inkscape:connector-curvature="0" />
    </g>
  </g>
</svg>
