<?xml version="1.0" encoding="UTF-8"?>
<svg id="MichelinRoadAtlanta_x5F_logo-4C" enable-background="new 0 0 401.4 152.3" version="1.1" viewBox="0 0 401.4 152.3" xml:space="preserve" xmlns="http://www.w3.org/2000/svg">
<title>Michelin Raceway Road Atlanta logo</title>
<desc>Motorsport circuit in Braselton, Georgia, United States</desc>
<style type="text/css">
	.st0{fill:#27509B;}
	.st1{fill:#005BAA;}
	.st2{fill:#FFE600;}
</style>
<g>
	<path class="st0" d="m141.4 1.2c-10.9 2.2-25.6 10.2-25.4 24.8 0.1 8.4 10.3 13 21.9 12.7 6.5-0.2 12.7-1.4 13.5-1.5l4.3-11.2c-5.7 0.9-11.2 2.3-15.5 0.6-7.8-3.1-3-11.2 2.5-13.7 2.4-1.1 5.7-2.2 9.6-2.1 1.6 0 5.6 0.1 7.2 3.6l5.4-13c-9.3-2.3-18.7-1.2-23.5-0.2zm58.8-0.5-4.9 13.3h-9l4.9-13.3h-17.1l-13.5 37h17l4.6-12.5h9l-4.6 12.5h17.1l13.6-37h-17.1zm-101.7 0.2-13.5 37.1h17.9l13.5-37-17.9-0.1zm-35.6 0.1-13 19.9s0.8-10.4 1-12.9c0.2-1.9-0.1-7-4.7-7h-20.8l-13.6 37h16.2l9.8-26.8-2 26.8h14.4l17.7-26.3-9.6 26.3h16.3l13.6-37h-25.3zm316.2-0.6-9.3 25.4c0.1-2.6 0.6-12.7 0.9-18.5 0.1-2.4-0.4-4.2-1.5-5.4-1.4-1.5-3.2-1.5-3.3-1.5h-20.8l-13.5 37h15.1l9.6-26.2-1.1 26.2h25.4l13.5-37h-15zm-62.6 0.1-13.5 37h17.9l13.5-37h-17.9zm-75.7 9.8h20.5l3.6-9.7-37.4 0.1-13.6 37 37.8-0.1 3.6-10h-20.9l1.5-4.1h19.5l3.3-9.1h-19.5l1.6-4.1zm51.3-9.8h-17.4l-13.6 37 35-0.1 4.5-12.3h-17.6l9.1-24.6z"/>
	<path class="st1" d="m401.4 2.7c0 1.5-1.2 2.8-2.8 2.8s-2.8-1.2-2.8-2.8c0-1.5 1.2-2.7 2.8-2.7s2.8 1.2 2.8 2.7zm-4.9 0c0 1.2 0.9 2.2 2.1 2.2s2.1-1 2.1-2.2-0.9-2.2-2.1-2.2c-1.2 0.1-2.1 1-2.1 2.2zm1.7 1.5h-0.6v-2.8c0.2 0 0.6-0.1 1-0.1 0.5 0 0.8 0.1 1 0.2 0.1 0.1 0.3 0.3 0.3 0.6s-0.2 0.5-0.6 0.6c0.3 0.1 0.4 0.3 0.5 0.7s0.1 0.6 0.2 0.7h-0.7c-0.1-0.1-0.1-0.3-0.2-0.7 0-0.3-0.2-0.4-0.6-0.4h-0.3v1.2zm0-1.6h0.3c0.4 0 0.6-0.1 0.6-0.4 0-0.2-0.2-0.4-0.6-0.4h-0.4l0.1 0.8z"/>
	<path class="st1" d="m337.1 104.8c0 1.2-0.9 2.1-2.1 2.1s-2.1-0.9-2.1-2.1c0-1.1 0.9-2 2.1-2s2.1 0.9 2.1 2zm-3.7 0c0 0.9 0.7 1.6 1.6 1.6s1.5-0.7 1.5-1.6-0.7-1.6-1.6-1.6c-0.8 0-1.5 0.7-1.5 1.6zm1.3 1.1h-0.5v-2c0.2 0 0.5-0.1 0.8-0.1 0.4 0 0.6 0.1 0.7 0.2s0.2 0.2 0.2 0.4-0.2 0.4-0.4 0.5c0.2 0.1 0.3 0.2 0.4 0.5s0.1 0.4 0.1 0.5h-0.5c-0.1-0.1-0.1-0.3-0.2-0.5 0-0.2-0.2-0.3-0.4-0.3h-0.2v0.8zm0-1.2h0.2c0.3 0 0.5-0.1 0.5-0.3s-0.1-0.3-0.4-0.3h-0.3v0.6z"/>
	
		<path class="st2" d="m121.3 152c-27.2-3.3-48-5.6-69.9-12.8-11.6-3.8-21-17.6-5.7-26.9 17.4-10.6 51.5-20.6 69.2-27.5 15.1-5.9 9.2-17-2.4-19.8-17.8-4.3-69.2-6.5-79.1-7 6.1 0.6 28 6.5 41.8 12 12.2 4.9 13.6 11.4 3.3 16-17.1 7.7-53.6 21.1-66.8 28.4-18.3 10.2-13 23.7 1.6 30.1 7.8 3.4 19.7 5.6 39.3 6.9 28 1.8 61.7 0.3 68.7 0.6z"/>
		<path class="st0" d="m72 94.3c0.4 0.6 0.3 2-0.2 4l-0.9 3.5c-0.8 2.8-1.5 4.5-2.2 5s-1.8 0.8-3.3 0.8l3.8-14.3c1.4 0.1 2.4 0.4 2.8 1zm-16.9 52.4 7.6-29c1.8 0 2.8 0.4 3 1.2s-0.1 2.9-1 6.4l-5.6 21.4 12.2 0.1 4.5-17c1.4-5.2 2.1-8.4 2.2-9.5s-0.1-2.4-0.7-3.8c-0.5-1.4-2-2.5-4.4-3.3 3-0.3 5.2-1.4 6.6-3.1s2.8-5.1 4.1-10.1c1.4-5.5 1.8-9.5 1.1-12s-2.1-4.1-4.2-4.7-6.2-0.9-12.4-1h-9.3l-16.9 64.3 13.2 0.1zm35.7-12.7c-0.3 0.4-0.8 0.7-1.5 0.7-0.6 0-1-0.2-1.1-0.7s0.1-1.6 0.6-3.2l4.3-15.6c0.5-1.8 0.9-2.9 1.2-3.3s0.8-0.7 1.5-0.7 1 0.2 1.1 0.7-0.1 1.6-0.6 3.3l-4.4 15.9c-0.4 1.5-0.8 2.4-1.1 2.9zm16.6-21.7c0-1.2-0.3-2.4-1-3.5-0.6-1.1-1.7-2-3.3-2.8-1.5-0.7-3.5-1.1-5.9-1.1-2.9 0-5.4 0.5-7.6 1.6s-3.8 2.5-5.1 4.3c-1.2 1.8-2.3 4.3-3.1 7.5l-2.4 8.9c-0.8 2.9-1.2 5.1-1.2 6.6s0.3 2.7 0.9 3.8 1.7 1.8 3.2 2.3 3.5 0.8 5.9 0.8c2.1 0 4.1-0.3 5.9-0.9s3.4-1.5 4.8-2.8c1.4-1.2 2.5-2.6 3.2-4.1s1.5-3.7 2.4-6.8l2.3-8.5c0.7-2.3 1-4.1 1-5.3zm10.8 21.8c-0.3 0.4-0.8 0.6-1.5 0.6s-1.1-0.3-1.2-0.8 0.1-1.7 0.6-3.5c0.4-1.6 0.9-2.8 1.4-3.6s1.8-1.9 3.9-3.1l-2 7.1c-0.5 1.8-0.9 2.9-1.2 3.3zm3.3-22.3c0.3-0.5 0.8-0.7 1.6-0.7 0.6 0 1 0.3 1.2 0.8 0.1 0.6-0.1 1.7-0.6 3.5-0.4 1.4-0.8 2.4-1.2 2.9s-2.5 1.4-6.4 2.7c-3.7 1.2-6 2.3-7.1 3.3-1.1 0.9-2 2.7-2.7 5.3l-0.8 2.8c-1 3.5-0.8 5.8 0.5 6.8s2.9 1.6 4.8 1.6c1.4 0 2.8-0.3 4-0.9s2.3-1.5 3.3-2.8l-0.8 3.1h10.5l4.8-17.3c1.6-5.7 2.4-9.5 2.6-11.3s-0.6-3.4-2.1-4.6c-1.5-1.3-4.1-1.9-7.7-1.9-3.1 0-5.7 0.6-7.9 1.7s-3.8 2.4-4.9 3.8c-1 1.4-1.9 3.5-2.7 6.2l-0.6 2.3h10.1l1-3.6c0.4-2 0.8-3.2 1.1-3.7zm25 22.2c-0.4 0.5-0.9 0.7-1.6 0.7-0.6 0-1-0.2-1.1-0.7s0.1-1.4 0.4-2.8l4.7-16.9c0.4-1.3 0.7-2.2 1.1-2.6 0.3-0.4 0.8-0.6 1.5-0.6s1 0.2 1.1 0.7 0 1.3-0.4 2.6l-4.4 16c-0.5 1.9-0.9 3.1-1.3 3.6zm7.6-26.1c-0.6-0.9-1.5-1.6-2.4-2.1s-2.1-0.7-3.5-0.7c-1.7 0-3.3 0.4-4.8 1.3-1.5 0.8-2.6 1.8-3.2 2.9s-1.4 3-2.1 5.7l-4.5 16.2c-0.7 2.6-1 4.4-1 5.5s0.6 2.1 1.5 3c1 0.9 2.3 1.3 4 1.3 1.2 0 2.5-0.3 3.8-0.8s2.6-1.3 3.9-2.3l-0.7 2.5h10.8l11.6-42.1h-10.8l-2.6 9.6zm38.7-9.1c-2.7 10.2-4.9 18.8-6.5 25.8h-4.2c2.1-5.4 5.7-14 10.7-25.8zm-31.1 47.8h12.7l4.3-11.1h4.4l-3 11.1h12.6l12.9-61.6h-17.7l-26.2 61.6zm46.9-45.5-1.5 5.4h-2.3l-1.5 5.5h2.3l-4.8 17.5c-0.9 3.4-1.4 5.6-1.5 6.5s0.2 1.8 0.8 2.5 1.4 1.2 2.4 1.4 2.7 0.3 5.2 0.3h4.4l1.5-5.6c-1.8 0-2.7-0.1-2.9-0.4s0.1-1.5 0.7-3.8l5.1-18.5h2.9l1.5-5.5h-2.9l1.5-5.4-10.9 0.1zm17-2.9-11.6 42.1h11.1l11.6-42.1h-11.1zm17.8 36c-0.3 0.4-0.8 0.6-1.5 0.6s-1.1-0.3-1.2-0.8 0.1-1.7 0.6-3.5c0.4-1.6 0.9-2.8 1.4-3.6s1.8-1.9 3.9-3.1l-2 7.1c-0.5 1.8-0.9 2.9-1.2 3.3zm3.3-22.3c0.3-0.5 0.8-0.7 1.6-0.7 0.6 0 1 0.3 1.1 0.8 0.1 0.6-0.1 1.7-0.6 3.5-0.4 1.4-0.8 2.4-1.2 2.9s-2.5 1.4-6.4 2.7c-3.7 1.2-6 2.3-7.1 3.3-1.1 0.9-2 2.7-2.7 5.3l-0.8 2.8c-1 3.5-0.8 5.8 0.5 6.8s2.9 1.6 4.8 1.6c1.4 0 2.8-0.3 4-0.9s2.3-1.5 3.3-2.8l-0.9 3.1h10.5l4.8-17.3c1.6-5.7 2.4-9.5 2.6-11.3s-0.6-3.4-2.1-4.6c-1.5-1.3-4.1-1.9-7.7-1.9-3.1 0-5.7 0.6-7.9 1.7s-3.8 2.4-4.9 3.8c-1 1.4-1.9 3.5-2.6 6.2l-0.6 2.3h10.1l1-3.6c0.4-2 0.9-3.2 1.2-3.7zm19.3-6.1-9.5 34.5h10.8l6.4-23.3c0.7-2.6 1.3-4.2 1.6-4.8 0.4-0.6 0.9-0.9 1.7-0.9 0.7 0 1.1 0.3 1.1 0.8s-0.3 2-1 4.3l-6.6 23.9h10.8l6.7-24.2c0.8-3 1.3-5.2 1.3-6.5s-0.4-2.4-1.4-3.2c-0.9-0.8-2.3-1.3-4.2-1.3-1.5 0-2.9 0.3-4.2 0.9s-2.5 1.6-3.7 2.8l1.1-3.2-10.9 0.2zm30.5-4.6-1.5 5.4h-2.3l-1.5 5.5h2.3l-4.8 17.5c-1 3.4-1.5 5.6-1.5 6.5-0.1 0.9 0.2 1.8 0.8 2.5s1.4 1.2 2.4 1.4 2.7 0.3 5.2 0.3h4.4l1.5-5.6c-1.8 0-2.7-0.1-2.9-0.4s0.1-1.5 0.7-3.8l5.1-18.5h2.9l1.5-5.5h-2.9l1.5-5.4-10.9 0.1zm19.8 33c-0.3 0.4-0.8 0.6-1.5 0.6s-1.1-0.3-1.2-0.8 0.1-1.7 0.6-3.5c0.4-1.6 0.9-2.8 1.4-3.6s1.8-1.9 3.9-3.1l-2 7.1c-0.5 1.9-0.9 2.9-1.2 3.3zm3.3-22.2c0.3-0.5 0.8-0.7 1.5-0.7 0.6 0 1 0.3 1.1 0.8s-0.1 1.7-0.6 3.5c-0.4 1.4-0.8 2.4-1.2 2.9s-2.5 1.4-6.5 2.7c-3.7 1.2-6 2.3-7.1 3.3-1.1 0.9-2 2.7-2.7 5.3l-0.8 2.8c-1 3.5-0.8 5.8 0.5 6.8s2.9 1.6 4.8 1.6c1.4 0 2.8-0.3 4-0.9s2.3-1.5 3.3-2.8l-0.9 3.1h10.5l4.8-17.3c1.6-5.7 2.4-9.5 2.6-11.3s-0.6-3.4-2.1-4.6c-1.5-1.3-4.1-1.9-7.7-1.9-3 0-5.7 0.6-7.9 1.7s-3.8 2.4-4.9 3.8-1.9 3.5-2.6 6.2l-0.6 2.3h10.1l1-3.6c0.6-2 1.1-3.2 1.4-3.7z"/>
	<path class="st0" d="m148.9 65.9h-1.1l-2.2 6h-11l8.3-22.8h13.5c9.3 0 12.1 3.6 9.9 9.6-1.2 3.4-3.6 4.9-7.4 5.5l3.5 7.7h-11.3l-2.2-6zm2.7-10.5-1.6 4.4h1.4c2.4 0 3.4-0.1 4.1-2 0.5-1.3 0.4-2.4-2.1-2.4h-1.8zm35.9 13.3h-8.3l-2 3.2h-11.3l13.2-19.3c1.7-2.5 3.4-3.5 6.1-3.5h12.9l-0.6 22.8h-10.2l0.2-3.2zm0.7-14.3-4.9 7.8h4.5l0.4-7.8zm33.9 1.1c-4 0-6.7 1-8.1 5.1-1.3 3.8 0.7 5 5.2 5 2.4 0 5.4-0.4 7-0.8l-2.6 7c-2.6 0.6-5.1 0.7-7.7 0.7-11.8 0-15.5-5.3-12.4-14 2.9-7.9 9.8-10.1 18.1-10.1 3.6 0 7.1 0.6 9.8 1.5l-2.4 6.7c-1.6-0.5-4.6-1.1-6.9-1.1zm15.8-6.3h23.2l-2.2 6.2h-12.2l-0.8 2.1h11l-2.3 6.2h-10.9l-0.8 2.1h12.2l-2.2 6.2h-23.2l8.2-22.8zm27.3 0h10.9l-1.7 15.7 7.8-15.7h14.7l-3 15.8 8.6-15.9h10.3l-11 19.3c-1.5 2.7-3.8 3.5-6.5 3.5h-12l2.4-14.5-5.4 11c-1.3 2.8-3.5 3.5-6.1 3.5h-10.9l1.9-22.7zm62.8 19.5h-8.3l-2 3.2h-11.3l13.2-19.3c1.7-2.5 3.5-3.5 6.1-3.5h12.9l-0.6 22.8h-10.2l0.2-3.2zm0.8-14.3-4.9 7.8h4.5l0.4-7.8zm17.9 17.5 2.9-7.8-4.7-14.9h10.2l2.1 7.6 7-7.6h12.2l-16.2 15.7-2.6 7.1-10.9-0.1z"/>
</g>
</svg>
