<?xml version="1.0" encoding="UTF-8" standalone="no"?>
<!-- Created with Inkscape (http://www.inkscape.org/) -->

<svg
   xmlns:dc="http://purl.org/dc/elements/1.1/"
   xmlns:cc="http://creativecommons.org/ns#"
   xmlns:rdf="http://www.w3.org/1999/02/22-rdf-syntax-ns#"
   xmlns:svg="http://www.w3.org/2000/svg"
   xmlns="http://www.w3.org/2000/svg"
   xmlns:sodipodi="http://sodipodi.sourceforge.net/DTD/sodipodi-0.dtd"
   xmlns:inkscape="http://www.inkscape.org/namespaces/inkscape"
   width="221.55403"
   height="63.659721"
   viewBox="0 0 58.619502 16.843301"
   version="1.1"
   id="svg13771"
   inkscape:version="0.92.0 r15299"
   sodipodi:docname="WeatherTech Raceway Laguna Seca.svg">
  <defs
     id="defs13765" />
  <sodipodi:namedview
     id="base"
     pagecolor="#ffffff"
     bordercolor="#666666"
     borderopacity="1.0"
     inkscape:pageopacity="0.0"
     inkscape:pageshadow="2"
     inkscape:zoom="4.0855548"
     inkscape:cx="109.77701"
     inkscape:cy="30.829908"
     inkscape:document-units="mm"
     inkscape:current-layer="layer1"
     showgrid="false"
     fit-margin-top="0"
     fit-margin-left="0"
     fit-margin-right="0"
     fit-margin-bottom="0"
     units="px"
     inkscape:window-width="1280"
     inkscape:window-height="744"
     inkscape:window-x="-4"
     inkscape:window-y="-4"
     inkscape:window-maximized="1" />
  <metadata
     id="metadata13768">
    <rdf:RDF>
      <cc:Work
         rdf:about="">
        <dc:format>image/svg+xml</dc:format>
        <dc:type
           rdf:resource="http://purl.org/dc/dcmitype/StillImage" />
        <dc:title></dc:title>
      </cc:Work>
    </rdf:RDF>
  </metadata>
  <g
     inkscape:label="Layer 1"
     inkscape:groupmode="layer"
     id="layer1"
     transform="translate(3.34279,-125.78402)">
    <g
       transform="translate(-167.58981,-132.61839)"
       id="g13725">
      <path
         inkscape:connector-curvature="0"
         d="m 178.26993,266.02242 a 0.45508333,0.45508333 0 0 1 0.35454,0.10054 c 0.0714,0.0688 0.0714,0.16933 0.0291,0.29633 a 0.23283333,0.23283333 0 0 0 0,0.0873 c -0.0159,0.0264 -0.0159,0.0556 -0.0291,0.0688 v 0.0159 a 0.16933333,0.16933333 0 0 1 -0.0132,0.0714 l -0.0159,0.0979 h -2.21721 a 1.920875,1.920875 0 0 0 -0.52916,0.0582 0.93927082,0.93927082 0 0 0 -0.59796,0.49742 2.50825,2.50825 0 0 0 -0.18257,0.46831 l -0.0714,0.24077 a 1.5875,1.5875 0 0 0 -0.0847,0.45509 0.50535416,0.50535416 0 0 0 0.0556,0.26458 0.43127083,0.43127083 0 0 0 0.21432,0.15875 1.5001875,1.5001875 0 0 0 0.48154,0.0556 h 3.95287 c 0,-0.0291 0,-0.0556 0.0291,-0.0847 a 0.43920833,0.43920833 0 0 0 0.0291,-0.12965 c 0,-0.0423 0.0265,-0.0979 0.0423,-0.1561 l 0.0714,-0.22754 0.45244,-1.61925 a 2.1537083,2.1537083 0 0 0 0.10054,-0.59796 0.66939582,0.66939582 0 0 0 -0.0847,-0.35454 0.49477083,0.49477083 0 0 0 -0.26458,-0.18521 1.8520833,1.8520833 0 0 0 -0.52917,-0.0714 h -2.91041 l -0.13494,0.47625 h 1.85208 z m -0.0423,1.94733 c -0.0291,0.127 -0.0714,0.21431 -0.0847,0.28311 a 0.46566666,0.46566666 0 0 1 -0.127,0.1852 0.48418749,0.48418749 0 0 1 -0.19843,0.0714 h -0.68528 a 0.73289582,0.73289582 0 0 1 -0.37041,-0.0714 c -0.11377,-0.0714 -0.127,-0.21166 -0.0688,-0.39687 l 0.0979,-0.39952 a 0.49477083,0.49477083 0 0 1 0.24077,-0.34131 0.93927082,0.93927082 0 0 1 0.38365,-0.0688 h 1.03717 z"
         style="fill:#231f20;stroke-width:0.26458332"
         id="path13531" />
      <path
         inkscape:connector-curvature="0"
         d="m 180.69616,267.99886 a 1.1456458,1.1456458 0 0 0 -0.045,0.42598 0.52916666,0.52916666 0 0 0 0.0741,0.30427 0.50799999,0.50799999 0 0 0 0.26458,0.1852 1.571625,1.571625 0 0 0 0.49742,0.0688 h 2.5982 l 0.12965,-0.46832 h -1.20385 a 0.55297916,0.55297916 0 0 1 -0.41275,-0.127 0.41010416,0.41010416 0 0 1 -0.0423,-0.41275 l 0.41275,-1.47902 a 0.60854166,0.60854166 0 0 1 0.24077,-0.35454 0.73818749,0.73818749 0 0 1 0.43921,-0.11377 h 1.23561 l 0.12964,-0.4736 h -2.51089 a 1.4605,1.4605 0 0 0 -0.9525,0.2831 1.5372291,1.5372291 0 0 0 -0.45773,0.77523 z"
         style="fill:#231f20;stroke-width:0.26458332"
         id="path13533" />
      <path
         inkscape:connector-curvature="0"
         d="m 185.45337,266.5754 -0.41275,1.44991 a 1.6933333,1.6933333 0 0 0 -0.0847,0.47096 0.48683333,0.48683333 0 0 0 0.0582,0.26459 0.40481249,0.40481249 0 0 0 0.21167,0.1561 1.508125,1.508125 0 0 0 0.48419,0.0556 h 3.25173 l 0.127,-0.46831 h -1.91823 a 0.54768749,0.54768749 0 0 1 -0.41011,-0.127 0.396875,0.396875 0 0 1 -0.0423,-0.41275 l 0.0979,-0.35454 h 3.2385 l 0.31221,-1.10861 a 1.6933333,1.6933333 0 0 0 0.0741,-0.46566 0.51064583,0.51064583 0 0 0 -0.0556,-0.26459 0.41274999,0.41274999 0 0 0 -0.21431,-0.1561 1.5001875,1.5001875 0 0 0 -0.47096,-0.0609 h -2.93952 a 1.9473333,1.9473333 0 0 0 -0.52916,0.0556 0.92339582,0.92339582 0 0 0 -0.35455,0.18521 0.85460416,0.85460416 0 0 0 -0.24077,0.31221 2.4659166,2.4659166 0 0 0 -0.18256,0.46831 z m 1.73302,-0.15611 a 0.48154166,0.48154166 0 0 1 0.15611,-0.2831 0.44449999,0.44449999 0 0 1 0.32543,-0.10054 h 0.79375 c 0.0556,0 0.24077,0 0.31221,0.14287 a 0.39422916,0.39422916 0 0 1 0,0.31221 l -0.18521,0.6694 h -1.6166 z"
         style="fill:#231f20;stroke-width:0.26458332"
         id="path13535" />
      <path
         inkscape:connector-curvature="0"
         d="m 193.10777,265.55411 h -1.88913 l 0.18521,1.73302 c 0,0.18521 0.0265,0.34131 0.0423,0.45508 l 0.0423,0.34131 v 0.0423 c 0.0132,0.10054 0.0291,0.22754 0.0423,0.35454 l 0.0556,0.49741 h 2.02936 l 1.05833,-1.60602 0.0423,0.34132 c 0.0291,0.24341 0.0556,0.47095 0.0714,0.68262 0.0159,0.21167 0.0265,0.38365 0.0423,0.56886 h 2.01613 l 2.20927,-3.41048 h -0.55298 l -1.83092,2.87073 -0.32808,-2.87073 h -1.85208 l 0.11377,1.15093 -1.16417,1.77536 z"
         style="fill:#231f20;stroke-width:0.26458332"
         id="path13537" />
      <path
         inkscape:connector-curvature="0"
         d="m 201.81785,266.02242 a 0.46302083,0.46302083 0 0 1 0.35454,0.10054 c 0.0714,0.0688 0.0714,0.16933 0.0291,0.29633 l -0.0159,0.0291 c 0,0.0291 -0.0132,0.0423 -0.0132,0.0582 0,0.0159 -0.0159,0.0556 -0.0291,0.0847 v 0 a 0.16404166,0.16404166 0 0 1 -0.0132,0.0714 l -0.0159,0.10054 h -2.20133 a 1.9288125,1.9288125 0 0 0 -0.52917,0.0556 0.92339582,0.92339582 0 0 0 -0.35454,0.18521 0.88899999,0.88899999 0 0 0 -0.24342,0.31221 2.6167291,2.6167291 0 0 0 -0.18256,0.47096 l -0.0714,0.24077 a 1.5875,1.5875 0 0 0 -0.0847,0.45508 0.51064583,0.51064583 0 0 0 0.0556,0.26459 0.41274999,0.41274999 0 0 0 0.21431,0.1561 1.5001875,1.5001875 0 0 0 0.48154,0.0556 h 3.9423 l 0.0291,-0.0847 a 0.44185416,0.44185416 0 0 0 0.0291,-0.127 c 0,-0.0582 0.0265,-0.10054 0.0423,-0.17198 l 0.0714,-0.22754 0.45243,-1.61925 a 2.1537083,2.1537083 0 0 0 0.10054,-0.59796 0.66939582,0.66939582 0 0 0 -0.0847,-0.35454 0.49477083,0.49477083 0 0 0 -0.26459,-0.18521 1.8520833,1.8520833 0 0 0 -0.52916,-0.0714 h -2.90777 l -0.11377,0.48948 h 1.85208 z m -0.0423,1.94733 a 1.6748125,1.6748125 0 0 1 -0.0873,0.28311 0.43920833,0.43920833 0 0 1 -0.127,0.1852 0.45772916,0.45772916 0 0 1 -0.19843,0.0714 h -0.68263 a 0.72760416,0.72760416 0 0 1 -0.36777,-0.0714 c -0.11377,-0.0714 -0.12965,-0.21166 -0.0714,-0.39687 l 0.0979,-0.39952 a 0.54768749,0.54768749 0 0 1 0.24342,-0.34131 0.87841666,0.87841666 0 0 1 0.38364,-0.0688 h 1.02129 z"
         style="fill:#231f20;stroke-width:0.26458332"
         id="path13539" />
      <path
         inkscape:connector-curvature="0"
         d="m 208.72612,269.37734 1.0795,-3.82323 h -1.67481 a 0.70114582,0.70114582 0 0 1 -0.0423,0.127 0.31220833,0.31220833 0 0 0 -0.0291,0.10054 1.2144375,1.2144375 0 0 0 -0.0291,0.127 c 0,0.0423 -0.0265,0.11377 -0.0556,0.21431 l -0.0132,0.0265 -0.55562,1.94733 c -0.0291,0.0873 -0.0423,0.14288 -0.0556,0.18521 a 0.3730625,0.3730625 0 0 1 -0.10054,0.14288 0.28575,0.28575 0 0 1 -0.14023,0.0714 c -0.0291,0 -0.0714,0.0132 -0.12965,0.0132 h -0.70908 a 0.40481249,0.40481249 0 0 1 -0.32809,-0.11377 0.41539583,0.41539583 0 0 1 -0.0265,-0.35454 l 0.69585,-2.48708 h -1.67746 a 0.45772916,0.45772916 0 0 0 -0.0265,0.11377 c -0.0159,0.0556 -0.0291,0.0979 -0.0423,0.1561 a 1.5875,1.5875 0 0 1 -0.0582,0.18521 c -0.0291,0.0688 -0.0423,0.16933 -0.0847,0.29633 l -0.42597,1.4949 a 1.2117917,1.2117917 0 0 0 0,0.88106 c 0.11377,0.19844 0.37041,0.29633 0.76729,0.29633 h 2.14312 l -0.18256,0.45509 a 0.46037499,0.46037499 0 0 1 -0.17198,0.26458 0.72231249,0.72231249 0 0 1 -0.4101,0.0847 H 174.3197 l -0.58208,-2.50031 0.127,-0.0291 a 1.2303125,1.2303125 0 0 0 0.48419,-0.18521 1.3229166,1.3229166 0 0 0 0.29898,-0.26458 1.444625,1.444625 0 0 0 0.21166,-0.31221 1.5504583,1.5504583 0 0 0 0.127,-0.31221 l 0.26459,-0.88106 a 0.96837499,0.96837499 0 0 0 0.0291,-0.52917 0.70643749,0.70643749 0 0 0 -0.19844,-0.3122 0.79374999,0.79374999 0 0 0 -0.34131,-0.17198 2.270125,2.270125 0 0 0 -0.39158,-0.0529 h -4.01638 l -1.32291,4.74662 h 1.70391 l 0.45509,-1.63247 h 0.75141 l 0.76729,3.02683 h 34.77684 a 1.2594167,1.2594167 0 0 0 1.26206,-0.99483 z m -35.32981,-3.96875 -0.2249,0.82285 a 0.65616666,0.65616666 0 0 1 -0.66939,0.52917 h -1.1483 l 0.56621,-1.96057 h 1.05834 a 0.48154166,0.48154166 0 0 1 0.38364,0.127 0.55297916,0.55297916 0 0 1 0.0344,0.47096 z"
         style="fill:#231f20;stroke-width:0.26458332"
         id="path13541" />
      <polygon
         transform="matrix(0.26458333,0,0,0.26458333,164.5116,258.67494)"
         points="5.9,0.54 8,9.46 8.05,9.46 10.3,0.54 15.35,0.54 17.55,9.46 17.6,9.46 19.7,0.54 25.6,0.54 20.98,14.94 14.97,14.94 12.83,6.55 12.77,6.55 10.63,14.94 4.62,14.94 0,0.54 "
         style="fill:#231f20"
         id="polygon13545" />
      <path
         inkscape:connector-curvature="0"
         d="m 172.84597,261.49011 c 0,0.32543 0.32809,0.52916 0.71173,0.52916 a 0.65087499,0.65087499 0 0 0 0.52917,-0.24077 h 1.34938 c -0.24342,0.67998 -1.15094,0.90752 -1.98967,0.90752 -1.15094,0 -2.04523,-0.51064 -2.04523,-1.43404 0,-0.92339 0.88106,-1.49225 2.032,-1.49225 1.32292,0 2.1299,0.70908 2.11667,1.70392 h -2.70405 z m 1.29382,-0.56886 c 0,-0.26458 -0.29898,-0.48419 -0.62442,-0.48419 -0.42598,0 -0.6694,0.18521 -0.6694,0.48419 z"
         style="fill:#231f20;stroke-width:0.26458332"
         id="path13547" />
      <path
         inkscape:connector-curvature="0"
         d="m 178.65358,262.62781 -0.0688,-0.29897 a 2.159,2.159 0 0 1 -1.34938,0.36777 c -0.68262,0 -1.27794,-0.26459 -1.27794,-0.83873 0,-1.24884 2.55588,-0.67998 2.55588,-1.2065 0,-0.19844 -0.31221,-0.22754 -0.46831,-0.22754 -0.19844,0 -0.46832,0.0291 -0.49742,0.26458 h -1.37848 c 0,-0.58208 0.52917,-0.9234 1.96056,-0.9234 1.70392,0 1.80446,0.48154 1.80446,1.15094 v 1.29381 a 0.3175,0.3175 0 0 0 0.18786,0.35984 v 0.0582 z m -0.14023,-1.23825 c -0.46831,0.17198 -1.0795,0.0847 -1.0795,0.45509 0,0.14287 0.16933,0.22754 0.45508,0.22754 a 0.56091666,0.56091666 0 0 0 0.62442,-0.68263"
         style="fill:#231f20;stroke-width:0.26458332"
         id="path13549" />
      <path
         inkscape:connector-curvature="0"
         d="m 183.05625,262.62781 c -1.87325,0.0847 -2.1008,-0.0159 -2.1008,-0.9816 v -1.15094 h -0.51064 v -0.64029 h 0.52916 v -0.86783 h 1.40759 v 0.86783 h 0.67998 v 0.64029 h -0.68527 v 1.00807 c 0,0.26458 0.0423,0.34131 0.4392,0.34131 h 0.21696 v 0.79375 z"
         style="fill:#231f20;stroke-width:0.26458332"
         id="path13551" />
      <path
         inkscape:connector-curvature="0"
         d="m 183.723,258.81781 h 1.4261 v 1.37848 a 1.4181666,1.4181666 0 0 1 1.09273,-0.42598 c 0.9525,0 1.39171,0.42598 1.39171,1.19328 v 1.66422 h -1.42611 v -1.46579 a 0.44449999,0.44449999 0 0 0 -0.49741,-0.51064 c -0.44186,0 -0.55298,0.21166 -0.55298,0.56885 v 1.40758 h -1.41817 v -3.81 z"
         style="fill:#231f20;stroke-width:0.26458332"
         id="path13553" />
      <path
         inkscape:connector-curvature="0"
         d="m 189.60204,261.49011 c 0,0.32543 0.32808,0.52916 0.71173,0.52916 a 0.65087499,0.65087499 0 0 0 0.52916,-0.24077 h 1.36261 c -0.24077,0.67998 -1.15094,0.90752 -1.98702,0.90752 -1.15094,0 -2.04523,-0.51064 -2.04523,-1.43404 0,-0.92339 0.87841,-1.49225 2.02935,-1.49225 1.32292,0 2.11667,0.70908 2.11667,1.70392 h -2.71727 z m 1.29381,-0.56886 c 0,-0.26458 -0.29898,-0.48419 -0.62442,-0.48419 -0.42598,0 -0.66939,0.18521 -0.66939,0.48419 z"
         style="fill:#231f20;stroke-width:0.26458332"
         id="path13555" />
      <path
         inkscape:connector-curvature="0"
         d="m 192.89875,259.85498 h 1.29116 v 0.55298 0 a 1.0980208,1.0980208 0 0 1 1.10861,-0.63765 c 0.0556,0 0.127,0.0132 0.1852,0.0132 v 1.09538 a 1.9076458,1.9076458 0 0 0 -0.28045,-0.0291 c -0.58209,0 -0.88107,0.21432 -0.88107,0.80963 v 0.9525 h -1.41816 v -2.75696 z"
         style="fill:#231f20;stroke-width:0.26458332"
         id="path13557" />
      <polygon
         transform="matrix(0.26458333,0,0,0.26458333,164.5116,258.67494)"
         points="129.83,4.3 129.83,14.94 123.71,14.94 123.71,4.3 118.23,4.3 118.23,0.54 135.3,0.54 135.3,4.3 "
         style="fill:#cb082e"
         id="polygon13559" />
      <path
         inkscape:connector-curvature="0"
         d="m 201.40245,261.49011 c 0,0.32543 0.32809,0.52916 0.71173,0.52916 a 0.65087499,0.65087499 0 0 0 0.52917,-0.24077 h 1.3626 c -0.24077,0.67998 -1.15093,0.90752 -1.98966,0.90752 -1.14829,0 -2.04259,-0.51064 -2.04259,-1.43404 0,-0.92339 0.87842,-1.49225 2.02936,-1.49225 1.32291,0 2.11666,0.70908 2.11666,1.70392 h -2.71727 z m 1.29382,-0.56886 c 0,-0.26458 -0.29898,-0.48419 -0.62442,-0.48419 -0.42598,0 -0.6694,0.18521 -0.6694,0.48419 z"
         style="fill:#cb082e;stroke-width:0.26458332"
         id="path13561" />
      <path
         inkscape:connector-curvature="0"
         d="m 207.12539,260.90802 a 0.3254375,0.3254375 0 0 0 -0.1561,-0.28575 0.56620833,0.56620833 0 0 0 -0.36777,-0.11377 c -0.52917,0 -0.62707,0.42598 -0.62707,0.75406 0,0.41275 0.20109,0.69586 0.62707,0.69586 a 0.49477083,0.49477083 0 0 0 0.55298,-0.41275 h 1.43404 c -0.127,0.83873 -0.99484,1.15094 -1.98702,1.15094 -1.16417,0 -2.04523,-0.49742 -2.04523,-1.43405 0,-0.93662 0.86518,-1.49225 2.04523,-1.49225 0.96573,0 1.85208,0.31221 1.97379,1.13771 z"
         style="fill:#cb082e;stroke-width:0.26458332"
         id="path13563" />
      <path
         inkscape:connector-curvature="0"
         d="m 209.24206,258.81781 h 1.42081 v 1.37848 a 1.4102291,1.4102291 0 0 1 1.09273,-0.42598 c 0.94985,0 1.39171,0.42598 1.39171,1.19328 v 1.66422 h -1.42081 v -1.46579 c 0,-0.26458 -0.0979,-0.51064 -0.49742,-0.51064 -0.39952,0 -0.55298,0.21166 -0.55298,0.56885 v 1.40758 h -1.42081 v -3.81 z"
         style="fill:#cb082e;stroke-width:0.26458332"
         id="path13565" />
      <path
         inkscape:connector-curvature="0"
         d="m 213.53095,260.06929 a 0.68527082,0.68527082 0 0 1 -0.71173,-0.6985 0.703795,0.703795 0 0 1 1.40759,0 0.67468749,0.67468749 0 0 1 -0.69586,0.6985 m 0,-1.25148 a 0.49477083,0.49477083 0 0 0 -0.49741,0.52917 0.50535416,0.50535416 0 0 0 0.49741,0.52917 v 0 a 0.50535416,0.50535416 0 0 0 0.49742,-0.52917 0.51329166,0.51329166 0 0 0 -0.49742,-0.52917 m -0.11377,0.91546 h -0.1561 v -0.74612 h 0.2831 c 0.19844,0 0.31221,0.0582 0.31221,0.22754 a 0.1825625,0.1825625 0 0 1 -0.18521,0.19844 l 0.19844,0.32014 h -0.18256 l -0.17198,-0.31221 h -0.0714 v 0.31221 z m 0.14023,-0.45508 c 0.0714,0 0.11377,-0.0132 0.11377,-0.10054 0,-0.0873 -0.0847,-0.0847 -0.14023,-0.0847 h -0.11377 v 0.18521 z"
         style="fill:#231f20;stroke-width:0.26458332"
         id="path13567" />
      <polygon
         transform="matrix(0.26458333,0,0,0.26458333,164.5116,258.67494)"
         points="32.3,61.41 32.3,58.51 25.65,58.51 25.65,49.11 22,49.11 22,61.41 "
         style="fill:#231f20"
         id="polygon13571" />
      <path
         inkscape:connector-curvature="0"
         d="m 174.54989,271.66863 -1.34937,3.25437 h 1.03716 l 0.22754,-0.58208 h 1.42346 l 0.24077,0.58208 h 1.0213 l -1.37584,-3.25437 z m 0.18521,2.00289 0.43921,-1.0795 0.44979,1.0795 z"
         style="fill:#231f20;stroke-width:0.26458332"
         id="path13573" />
      <path
         inkscape:connector-curvature="0"
         d="m 183.80766,273.80117 c 0,0.26458 -0.0556,0.31221 -0.0847,0.32544 a 1.5266458,1.5266458 0 0 1 -0.63765,0.0714 c -0.47096,0 -0.59796,-0.0423 -0.62706,-0.0714 -0.0291,-0.0291 -0.0847,-0.14288 -0.0847,-0.31221 v -2.16165 h -0.96573 v 2.16165 c 0,0.45508 0.12965,0.76729 0.37042,0.92339 0.24077,0.15611 0.66675,0.21432 1.34937,0.21432 0.68263,0 1.0795,-0.0714 1.3044,-0.22755 0.22489,-0.1561 0.35719,-0.46831 0.35719,-0.93927 v -2.13254 h -0.96309 v 2.14842 z"
         style="fill:#231f20;stroke-width:0.26458332"
         id="path13575" />
      <path
         inkscape:connector-curvature="0"
         d="m 188.10979,273.53129 v 0.29634 l -0.0503,-0.0714 c -0.11377,-0.18521 -0.21167,-0.35454 -0.29634,-0.49742 l -1.00806,-1.5875 h -1.39965 v 3.25438 h 0.96573 v -2.13519 c 0.11377,0.19844 0.19844,0.35454 0.26459,0.44185 l 1.10596,1.70392 h 1.39964 v -3.25437 h -0.96573 v 1.85208 z"
         style="fill:#231f20;stroke-width:0.26458332"
         id="path13577" />
      <path
         inkscape:connector-curvature="0"
         d="m 190.72387,271.66863 -1.34144,3.25437 h 1.03717 l 0.22754,-0.58208 h 1.43404 l 0.24077,0.58208 h 1.0213 l -1.37584,-3.25437 z m 0.19844,2.00289 0.43921,-1.0795 0.45508,1.0795 z"
         style="fill:#231f20;stroke-width:0.26458332"
         id="path13579" />
      <polygon
         transform="matrix(0.26458333,0,0,0.26458333,164.5116,258.67494)"
         points="131.11,53.84 131.11,51.9 138.09,51.9 138.09,49.11 127.46,49.11 127.46,61.41 138.19,61.41 138.19,58.62 131.11,58.62 131.11,56.41 137.76,56.41 137.76,53.84 "
         style="fill:#231f20"
         id="polygon13581" />
      <path
         inkscape:connector-curvature="0"
         d="m 203.95833,273.85673 c 0,0.10054 -0.0132,0.22754 -0.0847,0.26458 a 1.4657916,1.4657916 0 0 1 -0.62441,0.0714 c -0.56886,0 -0.65353,-0.10054 -0.6694,-0.10054 -0.0159,0 -0.0847,-0.18256 -0.0847,-0.93662 0,-0.55563 0.0714,-0.65353 0.0847,-0.6694 0.0132,-0.0159 0.12965,-0.0847 0.69585,-0.0847 a 1.5107708,1.5107708 0 0 1 0.56886,0.0582 c 0.0423,0.0265 0.0714,0.127 0.0714,0.26458 v 0.21167 h 0.97895 v -0.19844 a 1.0080625,1.0080625 0 0 0 -0.32808,-0.86783 c -0.19844,-0.14023 -0.58208,-0.21167 -1.14829,-0.21167 -0.76729,0 -1.26471,0.0847 -1.52136,0.26459 -0.25664,0.17991 -0.39687,0.52916 -0.39687,1.08214 0,0.89429 0.0847,1.42082 0.2831,1.63513 0.19844,0.21431 0.6694,0.34131 1.46315,0.34131 0.69585,0 1.12183,-0.0714 1.33615,-0.20108 0.21431,-0.12965 0.34131,-0.45509 0.34131,-0.9234 v -0.24077 h -0.98954 z"
         style="fill:#231f20;stroke-width:0.26458332"
         id="path13583" />
      <path
         inkscape:connector-curvature="0"
         d="m 207.60693,271.66863 h -1.2356 l -1.34938,3.25437 h 1.02923 l 0.22754,-0.58208 h 1.43405 l 0.24077,0.58208 h 1.02393 z m -1.05833,2.00289 0.43921,-1.0795 0.45508,1.0795 z"
         style="fill:#231f20;stroke-width:0.26458332"
         id="path13585" />
      <path
         inkscape:connector-curvature="0"
         d="m 197.45487,273.13177 a 2.69875,2.69875 0 0 0 -1.15094,-0.21166 4.7254583,4.7254583 0 0 1 -0.79375,-0.0714 c 0,0 -0.0423,-0.0582 -0.0423,-0.22754 0,-0.16934 0.0556,-0.18521 0.0847,-0.20109 a 1.5875,1.5875 0 0 1 0.59531,-0.0556 1.9288125,1.9288125 0 0 1 0.48419,0.0423 c 0.0291,0.0132 0.0556,0.0847 0.0714,0.19844 v 0.11377 h 0.94986 v -0.1561 a 0.79374999,0.79374999 0 0 0 -0.33338,-0.73819 2.8548541,2.8548541 0 0 0 -1.2065,-0.17198 c -0.62441,0 -1.03716,0.0582 -1.24883,0.20109 a 0.85460416,0.85460416 0 0 0 -0.37042,0.80962 c 0,0.38365 0.10054,0.65352 0.31221,0.79375 a 2.9289375,2.9289375 0 0 0 1.19327,0.21431 h 0.39688 a 1.2647083,1.2647083 0 0 1 0.35718,0.0582 c 0.0265,0.0132 0.0423,0.0714 0.0423,0.18521 0,0.19844 -0.0423,0.26458 -0.0714,0.26458 a 1.4578541,1.4578541 0 0 1 -0.52917,0.0556 1.9129375,1.9129375 0 0 1 -0.68262,-0.0556 c -0.0291,-0.0159 -0.0714,-0.10054 -0.0714,-0.26458 v -0.0873 h -0.94985 v 0.14287 c 0,0.39952 0.11377,0.6694 0.35454,0.80963 0.24077,0.14023 0.62442,0.18521 1.2356,0.18521 0.68263,0 1.12184,-0.0556 1.32292,-0.19844 0.20108,-0.14288 0.35719,-0.44186 0.35719,-0.88106 0.005,-0.39423 -0.0952,-0.6403 -0.30692,-0.75407 z"
         style="fill:#231f20;stroke-width:0.26458332"
         id="path13587" />
      <path
         inkscape:connector-curvature="0"
         d="m 180.84168,272.7349 v -0.037 c 0,-0.44186 -0.11377,-0.72496 -0.35718,-0.86784 -0.24342,-0.14287 -0.65353,-0.1905 -1.34673,-0.1905 a 4.0375416,4.0375416 0 0 0 -1.12184,0.11377 1.000125,1.000125 0 0 0 -0.55562,0.49742 c -0.0556,0.127 -0.14023,0.39688 -0.14023,1.30704 0,0.56886 0.11112,0.92604 0.36777,1.12448 0.25665,0.19844 0.68262,0.28311 1.3626,0.28311 0.73819,0 1.2065,-0.0714 1.43405,-0.21167 0.22754,-0.14023 0.37041,-0.47096 0.37041,-0.9525 l -0.0132,-0.72496 h -1.905 v 0.67998 h 0.93927 c 0,0.26458 -0.0714,0.35454 -0.10054,0.36777 a 1.397,1.397 0 0 1 -0.66675,0.0847 c -0.49741,0 -0.64029,-0.0688 -0.68262,-0.0979 -0.0423,-0.0291 -0.11377,-0.11377 -0.11377,-0.46831 v -0.67998 c 0,-0.35719 0.0847,-0.44185 0.11377,-0.47096 0.0291,-0.0291 0.18521,-0.0979 0.71173,-0.0979 a 2.1166666,2.1166666 0 0 1 0.65087,0.0556 0.31485416,0.31485416 0 0 1 0.0873,0.26458 v 0.0423 h 0.96573 z"
         style="fill:#231f20;stroke-width:0.26458332"
         id="path13589" />
      <path
         id="path13593"
         style="fill:#cb082e;stroke-width:0.26458332"
         d="m 217.39916,274.86479 h -1.61925 a 2.8336875,2.8336875 0 0 1 -0.56885,-0.0847 c -0.18256,-0.0556 -1.91559,-0.45509 -2.80988,-0.65352 v 0 c 0,0 -0.73818,-0.15611 -0.89429,-0.19844 l -0.0291,-0.0159 a 1.7356666,1.7356666 0 0 1 -0.59796,-0.21166 0.59266666,0.59266666 0 0 1 -0.24077,-0.61119 2.7966458,2.7966458 0 0 1 0.38364,-0.64029 c 0.11377,-0.16934 1.13507,-1.71979 1.2065,-1.85209 a 2.3045208,2.3045208 0 0 0 0.14288,-0.29897 v 0 a 0.46831249,0.46831249 0 0 0 -0.19844,-0.37042 h -0.0159 c -0.15611,-0.15611 -1.4605,-1.5875 -1.61661,-1.80711 a 1.1668125,1.1668125 0 0 1 -0.21431,-0.97895 c 0.127,-0.31486 0.37042,-0.49742 0.93662,-0.72496 0.62707,-0.24342 1.39171,-0.55563 1.49225,-0.61119 0.10055,-0.0556 0.15611,-0.10054 0.15611,-0.18521 v -0.26458 a 2.3495,2.3495 0 0 1 0.0185,-0.33073 v 0 c 0.0159,-0.0714 0.0873,-0.39688 0.69585,-0.45508 0.11377,-0.0291 0.37042,-0.0979 0.48419,-0.14288 0.15611,-0.0688 0.83608,-0.38364 1.2065,-0.58208 0.29898,-0.15611 1.22238,-0.56886 1.70392,-0.78052 0.127,-0.0582 0.22754,-0.10054 0.26458,-0.11377 0.15611,-0.0714 0.32544,-0.14288 0.46831,-0.19844 0.0714,-0.0291 0.127,-0.0582 0.16934,-0.0714 0.14287,-0.0582 0.41275,-0.17198 0.56885,-0.21431 a 1.254125,1.254125 0 0 1 0.64029,-0.0556 1.4261041,1.4261041 0 0 1 0.49742,0.22754 2.0531666,2.0531666 0 0 1 0.35454,0.32544 c 0.11377,0.127 1.1774,1.64835 1.5875,2.31775 l 0.80963,1.16416 a 1.2726458,1.2726458 0 0 1 0.21166,0.86784 1.730375,1.730375 0 0 1 -0.66675,1.06891 1.8309166,1.8309166 0 0 1 -0.80962,0.20109 h -0.0423 c -0.21431,0 -1.05833,0.0714 -1.16681,0.0714 a 1.8838333,1.8838333 0 0 0 -0.67998,0.24077 c -0.31221,0.21167 -1.96056,1.03717 -2.032,1.05834 a 0.73289582,0.73289582 0 0 0 -0.33866,0.29898 c -0.0873,0.22754 -0.0873,0.35454 -0.0159,0.85195 0.0714,0.49742 0.22754,1.63513 0.22754,1.63513 a 2.2516041,2.2516041 0 0 0 0.0582,0.37042 0.65881249,0.65881249 0 0 0 0.21167,0.2831 l 0.0423,0.0291 a 0.52916666,0.52916666 0 0 0 0.39688,0.127 h 0.045 a 1.0583333,1.0583333 0 0 0 0.46831,-0.127 1.4816666,1.4816666 0 0 1 0.1561,-0.0714 2.9104166,2.9104166 0 0 0 0.94986,-0.61119 c 0.12964,-0.11377 0.22754,-0.22754 0.32808,-0.32808 0.10054,-0.10055 0.24077,-0.24077 0.36777,-0.35455 h 0.0159 a 0.69056249,0.69056249 0 0 1 0.36777,-0.11377 0.63764583,0.63764583 0 0 1 0.44185,0.16934 0.67733332,0.67733332 0 0 1 0.16933,0.85196 1.2408958,1.2408958 0 0 1 -0.59531,0.66939 l -2.07433,1.10861 a 0.98954165,0.98954165 0 0 1 -0.29898,0.10054 c -0.0556,0.0265 -0.46831,0 -0.70908,0.0265 z m -4.90008,-5.25991 a 0.98160415,0.98160415 0 0 1 0.34131,0.66939 v 0 c 0,0.0423 0.0132,0.15611 -0.19844,0.52917 v 0.0132 c -0.0423,0.0714 -1.09537,1.67746 -1.22237,1.85208 a 2.7490208,2.7490208 0 0 0 -0.34131,0.55827 0.15345833,0.15345833 0 0 0 0.0847,0.11377 1.6933333,1.6933333 0 0 0 0.41011,0.127 l 0.0291,0.0159 c 0.15611,0.0423 0.88106,0.19844 0.88106,0.19844 0.11377,0.0291 2.58498,0.59795 2.83898,0.66939 a 2.6908125,2.6908125 0 0 0 0.45509,0.0688 h 1.60602 c 0.26458,0 0.60854,0 0.66675,0 a 0.31485416,0.31485416 0 0 0 0.1561,-0.0423 l 0.11377,-0.0556 1.95792,-1.05834 a 0.72495832,0.72495832 0 0 0 0.38364,-0.44185 c 0.0582,-0.127 0.0714,-0.19844 -0.0714,-0.34131 a 0.16139583,0.16139583 0 0 0 -0.11113,-0.0423 0.56356249,0.56356249 0 0 0 -0.11377,0.0291 c -0.10054,0.0847 -0.20108,0.18521 -0.31221,0.29898 l -0.34131,0.34131 a 3.5321875,3.5321875 0 0 1 -1.0795,0.69585 1.1932708,1.1932708 0 0 0 -0.14287,0.0714 1.4208125,1.4208125 0 0 1 -0.62442,0.16934 1.0186458,1.0186458 0 0 1 -0.72496,-0.21167 l -0.0423,-0.0291 a 1.1773958,1.1773958 0 0 1 -0.35454,-0.46831 1.5319375,1.5319375 0 0 1 -0.10848,-0.53181 c 0,0 -0.15611,-1.1086 -0.2249,-1.61925 -0.0714,-0.55563 -0.0714,-0.75406 0.0423,-1.05833 a 1.0900833,1.0900833 0 0 1 0.58209,-0.56886 c 0.45243,-0.22754 1.71714,-0.86783 1.95791,-1.03716 a 2.2198541,2.2198541 0 0 1 0.89165,-0.32015 h 0.0132 l 1.16681,-0.0714 h 0.0423 a 1.6166041,1.6166041 0 0 0 0.62442,-0.14287 1.2885208,1.2885208 0 0 0 0.46038,-0.75407 0.81491666,0.81491666 0 0 0 -0.14288,-0.52916 l -0.80962,-1.1774 c -0.43921,-0.71173 -1.46315,-2.16164 -1.54782,-2.27541 a 1.3520208,1.3520208 0 0 0 -0.29898,-0.26459 1.2752917,1.2752917 0 0 0 -0.3122,-0.14287 0.21960416,0.21960416 0 0 0 -0.0979,0 1.1615208,1.1615208 0 0 0 -0.31221,0.0582 5.1620208,5.1620208 0 0 0 -0.52916,0.19843 c -0.0423,0.0132 -0.10055,0.0423 -0.16934,0.0714 -0.12964,0.0556 -0.29898,0.127 -0.45508,0.19844 a 2.3309791,2.3309791 0 0 1 -0.26458,0.127 c -0.48419,0.21431 -1.39171,0.62706 -1.69069,0.76729 -0.36777,0.18521 -1.05834,0.52917 -1.24884,0.59796 -0.1905,0.0688 -0.52916,0.1561 -0.56885,0.17198 h -0.0291 a 0.47095833,0.47095833 0 0 0 -0.29634,0.0979 v 0.52917 a 0.69056249,0.69056249 0 0 1 -0.39687,0.58208 c -0.15875,0.0847 -1.09538,0.45509 -1.54781,0.64029 -0.52917,0.21432 -0.62707,0.34132 -0.68263,0.45509 a 0.73024999,0.73024999 0 0 0 0.1561,0.52916 c 0.0767,0.11907 0.97103,1.10067 1.55311,1.73832 z"
         inkscape:connector-curvature="0" />
    </g>
  </g>
</svg>
