<?xml version="1.0" encoding="utf-8"?>
<!-- Generator: Adobe Illustrator 25.0.1, SVG Export Plug-In . SVG Version: 6.00 Build 0)  -->
<svg version="1.0" id="Layer_1" xmlns="http://www.w3.org/2000/svg" xmlns:xlink="http://www.w3.org/1999/xlink" x="0px" y="0px"
	 viewBox="0 0 196 137" style="enable-background:new 0 0 196 137;" xml:space="preserve">
<style type="text/css">
	.st0{fill:#D5001C;}
	.st1{display:none;}
	.st2{display:inline;fill:#FFFFFF;}
	.st3{display:inline;}
</style>
<g id="MOTORSPORT">
	<g>
		<path d="M21.6,83l0.4-8.5h1.9l1.8,5.7l1.7-5.7h1.9l0.4,8.5h-1.5l-0.3-5.6L26.1,83h-1l-1.8-5.6L23.1,83H21.6z"/>
		<path d="M31.1,78.7c0-3.5,0.8-4.4,3.3-4.4s3.3,0.9,3.3,4.4c0,3.4-0.6,4.4-3.3,4.4C31.8,83.2,31.1,82.1,31.1,78.7z M36,78.7
			c0-2.5-0.2-2.9-1.6-2.9c-1.4,0-1.6,0.4-1.6,2.9c0,2.8,0.2,3.1,1.6,3.1C35.8,81.8,36,81.5,36,78.7z"/>
		<path d="M38.8,74.5h6V76h-2.2v7.1H41V76h-2.2C38.8,76,38.8,74.5,38.8,74.5z"/>
		<path d="M45.9,78.7c0-3.5,0.8-4.4,3.3-4.4s3.3,0.9,3.3,4.4c0,3.4-0.6,4.4-3.3,4.4C46.5,83.2,45.9,82.1,45.9,78.7z M50.7,78.7
			c0-2.5-0.2-2.9-1.6-2.9c-1.4,0-1.6,0.4-1.6,2.9c0,2.8,0.2,3.1,1.6,3.1C50.5,81.8,50.7,81.5,50.7,78.7z"/>
		<path d="M54,74.5h3.1c1.8,0,2.6,0.6,2.6,2.7c0,1.6-0.5,2.3-1.4,2.5l1.7,3.2h-1.8l-1.5-3h-1v3h-1.6L54,74.5L54,74.5z M55.7,76v2.7
			h1.2c0.8,0,1.1-0.1,1.1-1.4c0-1.2-0.3-1.3-1.2-1.3C56.8,76,55.7,76,55.7,76z"/>
		<path d="M62.6,80.4c0.1,1.1,0.3,1.5,1.3,1.5c0.9,0,1.2-0.3,1.2-1.1c0-0.7-0.3-0.9-1.2-1.1l-0.6-0.3c-1.5-0.4-2.2-1-2.2-2.6
			c0-1.6,0.7-2.5,2.8-2.5c2.2,0,2.8,0.9,2.9,2.8h-1.6c-0.1-1.1-0.3-1.3-1.2-1.3c-0.8,0-1.2,0.3-1.2,1c0,0.8,0.3,0.9,1.3,1.2l0.7,0.2
			c1.5,0.4,2.2,1.1,2.2,2.5c0,1.6-0.8,2.5-2.9,2.5s-2.8-0.8-2.9-2.8C61.2,80.4,62.6,80.4,62.6,80.4z"/>
		<path d="M68.3,74.5h3.1c1.8,0,2.5,0.7,2.5,2.7c0,2.2-0.8,2.8-2.6,2.8h-1.5v3h-1.5V74.5z M70,76v2.7h1.2c0.9,0,1.1-0.2,1.1-1.4
			c0-1.1-0.3-1.3-1.1-1.3C71.2,76,70,76,70,76z"/>
		<path d="M75.2,78.7c0-3.5,0.8-4.4,3.3-4.4s3.3,0.9,3.3,4.4c0,3.4-0.6,4.4-3.3,4.4C75.9,83.2,75.2,82.1,75.2,78.7z M80.1,78.7
			c0-2.5-0.2-2.9-1.6-2.9c-1.4,0-1.6,0.4-1.6,2.9c0,2.8,0.2,3.1,1.6,3.1S80.1,81.5,80.1,78.7z"/>
		<path d="M83.4,74.5h3.1c1.8,0,2.6,0.6,2.6,2.7c0,1.6-0.5,2.3-1.4,2.5l1.7,3.2h-1.8l-1.5-3h-1v3h-1.6L83.4,74.5L83.4,74.5z
			 M85.1,76v2.7h1.2c0.8,0,1.1-0.1,1.1-1.4c0-1.2-0.3-1.3-1.2-1.3C86.2,76,85.1,76,85.1,76z"/>
		<path d="M90.3,74.5h6V76h-2.2v7.1h-1.6V76h-2.2V74.5z"/>
	</g>
</g>
<g id="line">
	<rect x="21.5" y="66.5" class="st0" width="152.5" height="2.5"/>
</g>
<g id="PORSCHE">
	<g>
		<polygon points="157.6,54.8 157.6,53.1 139.5,53.1 139.5,62.4 157.6,62.4 157.6,60.6 141.5,60.6 141.5,58.6 157.6,58.6 
			157.6,56.8 141.5,56.8 141.5,54.8 		"/>
		<polygon points="135,56.8 122.5,56.8 122.5,53 120.5,53 120.5,62.3 122.5,62.3 122.5,58.8 135,58.8 135,62.3 137,62.3 137,53 
			135,53 		"/>
		<path d="M101.2,55.1v5.2c0,1.1,0.9,2,2,2l0,0h14.9v-2h-14.5c-0.1,0-0.3-0.1-0.3-0.3v-4.7c0-0.2,0.2-0.3,0.3-0.3h14.5v-2h-14.7
			C102.2,53,101.2,53.9,101.2,55.1L101.2,55.1z"/>
		<path d="M96.7,56.8H83.6l0,0c-0.2,0-0.3-0.1-0.3-0.3l0,0v-1.4c0-0.2,0.1-0.3,0.3-0.3l0,0h14.9v-1.7H83.3c-1.1,0-2,0.9-2,2v1.4
			c0,1.1,0.9,2,2,2h13.1c0.2,0,0.3,0.1,0.3,0.3l0,0l0,0v1.4c0,0.2-0.1,0.3-0.3,0.3l0,0H81.5v1.7h15.2c1.1,0,2-0.9,2-2l0,0v-1.3
			C98.7,57.8,97.8,56.8,96.7,56.8L96.7,56.8z"/>
		<path d="M78.9,57.1v-2c0-1.1-0.9-2-2-2H61.2v9.3h2v-2.5h11.4c1.1,0,2,0.9,2,2v0.4h2l0,0c0.1-1.3-0.7-2.5-1.9-3.1
			C78,59.1,78.9,58.2,78.9,57.1z M76.5,57.8H63.3v-2.7h13.1c0.2,0,0.3,0.1,0.3,0.3l0.1,2.1C76.8,57.7,76.7,57.8,76.5,57.8z"/>
		<path d="M56.8,53H43.6c-1.1,0-2,0.9-2.1,2v5.2c0,1.1,0.9,2,2,2h13.1c1.1,0,2-0.9,2-2v-5.1C58.8,53.9,57.9,53,56.8,53z M56.4,60.3
			H43.9c-0.1,0-0.3-0.1-0.3-0.3v-4.7c0-0.2,0.2-0.3,0.3-0.3h12.4c0.2,0,0.3,0.1,0.3,0.3l0.1,4.6C56.8,60.1,56.6,60.3,56.4,60.3z"/>
		<path d="M37.1,53H21.6v9.3h2v-2.4H37c1.1,0,2-0.9,2-2v-2.8C39.1,53.9,38.2,53,37.1,53z M37.1,57.5c0,0.2-0.1,0.3-0.3,0.3H23.7
			v-2.7h13.1c0.2,0,0.3,0.1,0.3,0.3V57.5z"/>
	</g>
</g>
<g id="old" class="st1">
	<rect x="21.5" y="53.3" class="st2" width="153" height="30.4"/>
	<g id="Symbols" class="st3">
		<g id="MenuBarDesktop" transform="translate(-18.000000, -35.000000)">
		</g>
	</g>
</g>
</svg>
